<svg id="my-svg" width="100%" xmlns="http://www.w3.org/2000/svg" xmlns:xlink="http://www.w3.org/1999/xlink" class="erDiagram" style="max-width: 436.219px; background-color: white;" viewBox="0 0 436.21875 587.25" role="graphics-document document" aria-roledescription="er"><style>#my-svg{font-family:"trebuchet ms",verdana,arial,sans-serif;font-size:16px;fill:#333;}@keyframes edge-animation-frame{from{stroke-dashoffset:0;}}@keyframes dash{to{stroke-dashoffset:0;}}#my-svg .edge-animation-slow{stroke-dasharray:9,5!important;stroke-dashoffset:900;animation:dash 50s linear infinite;stroke-linecap:round;}#my-svg .edge-animation-fast{stroke-dasharray:9,5!important;stroke-dashoffset:900;animation:dash 20s linear infinite;stroke-linecap:round;}#my-svg .error-icon{fill:#552222;}#my-svg .error-text{fill:#552222;stroke:#552222;}#my-svg .edge-thickness-normal{stroke-width:1px;}#my-svg .edge-thickness-thick{stroke-width:3.5px;}#my-svg .edge-pattern-solid{stroke-dasharray:0;}#my-svg .edge-thickness-invisible{stroke-width:0;fill:none;}#my-svg .edge-pattern-dashed{stroke-dasharray:3;}#my-svg .edge-pattern-dotted{stroke-dasharray:2;}#my-svg .marker{fill:#333333;stroke:#333333;}#my-svg .marker.cross{stroke:#333333;}#my-svg svg{font-family:"trebuchet ms",verdana,arial,sans-serif;font-size:16px;}#my-svg p{margin:0;}#my-svg .entityBox{fill:#ECECFF;stroke:#9370DB;}#my-svg .relationshipLabelBox{fill:hsl(80, 100%, 96.2745098039%);opacity:0.7;background-color:hsl(80, 100%, 96.2745098039%);}#my-svg .relationshipLabelBox rect{opacity:0.5;}#my-svg .labelBkg{background-color:rgba(248.6666666666, 255, 235.9999999999, 0.5);}#my-svg .edgeLabel{background-color:rgba(232,232,232, 0.8);}#my-svg .edgeLabel .label rect{fill:rgba(232,232,232, 0.8);}#my-svg .edgeLabel .label text{fill:#333;}#my-svg .edgeLabel .label{fill:#9370DB;font-size:14px;}#my-svg .label{font-family:"trebuchet ms",verdana,arial,sans-serif;color:#333;}#my-svg .edge-pattern-dashed{stroke-dasharray:8,8;}#my-svg .node rect,#my-svg .node circle,#my-svg .node ellipse,#my-svg .node polygon{fill:#ECECFF;stroke:#9370DB;stroke-width:1px;}#my-svg .relationshipLine{stroke:#333333;stroke-width:1px;fill:none;}#my-svg .marker{fill:none!important;stroke:#333333!important;stroke-width:1;}#my-svg [data-look=neo].labelBkg{background-color:rgba(248.6666666666, 255, 235.9999999999, 0.5);}#my-svg .cluster rect{fill:#ffffde;stroke:#aaaa33;stroke-width:1px;}#my-svg .cluster text{fill:#333;}#my-svg .cluster-label text{fill:#333;}#my-svg .node .neo-node{stroke:#9370DB;}#my-svg [data-look="neo"].node rect,#my-svg [data-look="neo"].cluster rect,#my-svg [data-look="neo"].node polygon{stroke:#9370DB;filter:drop-shadow(1px 2px 2px rgba(185, 185, 185, 1));}#my-svg [data-look="neo"].swimlane.cluster rect{filter:none;}#my-svg [data-look="neo"].node path{stroke:#9370DB;stroke-width:1px;}#my-svg [data-look="neo"].node .outer-path{filter:drop-shadow(1px 2px 2px rgba(185, 185, 185, 1));}#my-svg [data-look="neo"].node .neo-line path{stroke:#9370DB;filter:none;}#my-svg [data-look="neo"].node circle{stroke:#9370DB;filter:drop-shadow(1px 2px 2px rgba(185, 185, 185, 1));}#my-svg [data-look="neo"].node circle .state-start{fill:#000000;}#my-svg [data-look="neo"].icon-shape .icon{fill:#9370DB;filter:drop-shadow(1px 2px 2px rgba(185, 185, 185, 1));}#my-svg [data-look="neo"].icon-shape .icon-neo path{stroke:#9370DB;filter:drop-shadow(1px 2px 2px rgba(185, 185, 185, 1));}#my-svg :root{--mermaid-font-family:"trebuchet ms",verdana,arial,sans-serif;}</style><g><defs><marker id="my-svg_er-onlyOneStart" class="marker onlyOne er" refX="0" refY="9" markerWidth="18" markerHeight="18" orient="auto"><path d="M9,0 L9,18 M15,0 L15,18"/></marker></defs><defs><marker id="my-svg_er-onlyOneEnd" class="marker onlyOne er" refX="18" refY="9" markerWidth="18" markerHeight="18" orient="auto"><path d="M3,0 L3,18 M9,0 L9,18"/></marker></defs><defs><marker id="my-svg_er-zeroOrOneStart" class="marker zeroOrOne er" refX="0" refY="9" markerWidth="30" markerHeight="18" orient="auto"><circle fill="white" cx="21" cy="9" r="6"/><path d="M9,0 L9,18"/></marker></defs><defs><marker id="my-svg_er-zeroOrOneEnd" class="marker zeroOrOne er" refX="30" refY="9" markerWidth="30" markerHeight="18" orient="auto"><circle fill="white" cx="9" cy="9" r="6"/><path d="M21,0 L21,18"/></marker></defs><defs><marker id="my-svg_er-oneOrMoreStart" class="marker oneOrMore er" refX="18" refY="18" markerWidth="45" markerHeight="36" orient="auto"><path d="M0,18 Q 18,0 36,18 Q 18,36 0,18 M42,9 L42,27"/></marker></defs><defs><marker id="my-svg_er-oneOrMoreEnd" class="marker oneOrMore er" refX="27" refY="18" markerWidth="45" markerHeight="36" orient="auto"><path d="M3,9 L3,27 M9,18 Q27,0 45,18 Q27,36 9,18"/></marker></defs><defs><marker id="my-svg_er-zeroOrMoreStart" class="marker zeroOrMore er" refX="18" refY="18" markerWidth="57" markerHeight="36" orient="auto"><circle fill="white" cx="48" cy="18" r="6"/><path d="M0,18 Q18,0 36,18 Q18,36 0,18"/></marker></defs><defs><marker id="my-svg_er-zeroOrMoreEnd" class="marker zeroOrMore er" refX="39" refY="18" markerWidth="57" markerHeight="36" orient="auto"><circle fill="white" cx="9" cy="18" r="6"/><path d="M21,18 Q39,0 57,18 Q39,36 21,18"/></marker></defs><g class="root"><g class="clusters"/><g class="edgePaths"><path d="M218.109,179L218.109,187.417C218.109,195.833,218.109,212.667,218.109,229.5C218.109,246.333,218.109,263.167,218.109,271.583L218.109,280" id="my-svg-id_entity-DOCUMENT-0_entity-DOCUMENT_VERSION-1_0" class="edge-thickness-normal edge-pattern-solid relationshipLine" style="undefined;;;undefined" data-edge="true" data-et="edge" data-id="id_entity-DOCUMENT-0_entity-DOCUMENT_VERSION-1_0" data-points="W3sieCI6MjE4LjEwOTM3NSwieSI6MTc5fSx7IngiOjIxOC4xMDkzNzUsInkiOjIyOS41fSx7IngiOjIxOC4xMDkzNzUsInkiOjI4MH1d" data-look="classic" marker-start="url(#my-svg_er-onlyOneStart)" marker-end="url(#my-svg_er-zeroOrMoreEnd)"/></g><g class="edgeLabels"><g class="edgeLabel" transform="translate(218.109375, 229.5)"><g class="label" data-id="id_entity-DOCUMENT-0_entity-DOCUMENT_VERSION-1_0" transform="translate(-10.3359375, -10.5)"><foreignObject width="20.671875" height="21"><div xmlns="http://www.w3.org/1999/xhtml" class="labelBkg" style="display: table-cell; white-space: nowrap; line-height: 1.5; max-width: 200px; text-align: center;"><span class="edgeLabel"><p>has</p></span></div></foreignObject></g></g></g><g class="nodes"><g class="node default" id="my-svg-entity-DOCUMENT-0" data-look="classic" transform="translate(218.109375, 93.5)"><g class="outer-path" style=""><path d="M-178.9609375 -85.5 L178.9609375 -85.5 L178.9609375 85.5 L-178.9609375 85.5" stroke="none" stroke-width="0" fill="#ECECFF"/><path d="M-178.9609375 -85.5 C-94.910971080585 -85.5, -10.86100466117 -85.5, 178.9609375 -85.5 M-178.9609375 -85.5 C-92.23611235628867 -85.5, -5.5112872125773436 -85.5, 178.9609375 -85.5 M178.9609375 -85.5 C178.9609375 -37.12714775668209, 178.9609375 11.245704486635816, 178.9609375 85.5 M178.9609375 -85.5 C178.9609375 -49.38542165540423, 178.9609375 -13.27084331080846, 178.9609375 85.5 M178.9609375 85.5 C92.34999446744156 85.5, 5.739051434883123 85.5, -178.9609375 85.5 M178.9609375 85.5 C66.08503417495093 85.5, -46.79086915009813 85.5, -178.9609375 85.5 M-178.9609375 85.5 C-178.9609375 50.48879334112244, -178.9609375 15.477586682244876, -178.9609375 -85.5 M-178.9609375 85.5 C-178.9609375 49.341383901252556, -178.9609375 13.182767802505111, -178.9609375 -85.5" stroke="#9370DB" stroke-width="1.3" fill="none" stroke-dasharray="0 0"/></g><g style="" class="row-rect-odd"><path d="M-178.9609375 -42.75 L178.9609375 -42.75 L178.9609375 0 L-178.9609375 0" stroke="none" stroke-width="0" fill="hsl(240, 100%, 100%)"/><path d="M-178.9609375 -42.75 C-90.26702274355398 -42.75, -1.57310798710796 -42.75, 178.9609375 -42.75 M-178.9609375 -42.75 C-82.65980979774905 -42.75, 13.641317904501904 -42.75, 178.9609375 -42.75 M178.9609375 -42.75 C178.9609375 -34.00918561021531, 178.9609375 -25.268371220430616, 178.9609375 0 M178.9609375 -42.75 C178.9609375 -26.979716427410118, 178.9609375 -11.209432854820232, 178.9609375 0 M178.9609375 0 C36.87253350854277 0, -105.21587048291445 0, -178.9609375 0 M178.9609375 0 C49.632963809473324 0, -79.69500988105335 0, -178.9609375 0 M-178.9609375 0 C-178.9609375 -9.47185473102158, -178.9609375 -18.94370946204316, -178.9609375 -42.75 M-178.9609375 0 C-178.9609375 -10.433501815825576, -178.9609375 -20.86700363165115, -178.9609375 -42.75" stroke="#9370DB" stroke-width="1.3" fill="none" stroke-dasharray="0 0"/></g><g style="" class="row-rect-even"><path d="M-178.9609375 0 L178.9609375 0 L178.9609375 42.75 L-178.9609375 42.75" stroke="none" stroke-width="0" fill="hsl(240, 100%, 97.2745098039%)"/><path d="M-178.9609375 0 C-93.3027006856516 0, -7.644463871303202 0, 178.9609375 0 M-178.9609375 0 C-40.01881961644102 0, 98.92329826711796 0, 178.9609375 0 M178.9609375 0 C178.9609375 14.511683840778423, 178.9609375 29.023367681556845, 178.9609375 42.75 M178.9609375 0 C178.9609375 11.822256278659184, 178.9609375 23.644512557318368, 178.9609375 42.75 M178.9609375 42.75 C94.92118735088393 42.75, 10.881437201767852 42.75, -178.9609375 42.75 M178.9609375 42.75 C103.44948165537652 42.75, 27.938025810753032 42.75, -178.9609375 42.75 M-178.9609375 42.75 C-178.9609375 32.496057720819934, -178.9609375 22.24211544163987, -178.9609375 0 M-178.9609375 42.75 C-178.9609375 32.987683761516884, -178.9609375 23.225367523033768, -178.9609375 0" stroke="#9370DB" stroke-width="1.3" fill="none" stroke-dasharray="0 0"/></g><g style="" class="row-rect-odd"><path d="M-178.9609375 42.75 L178.9609375 42.75 L178.9609375 85.5 L-178.9609375 85.5" stroke="none" stroke-width="0" fill="hsl(240, 100%, 100%)"/><path d="M-178.9609375 42.75 C-81.98055934459204 42.75, 14.999818810815924 42.75, 178.9609375 42.75 M-178.9609375 42.75 C-95.41087399183407 42.75, -11.860810483668132 42.75, 178.9609375 42.75 M178.9609375 42.75 C178.9609375 54.73204492455227, 178.9609375 66.71408984910454, 178.9609375 85.5 M178.9609375 42.75 C178.9609375 54.37051278859716, 178.9609375 65.99102557719432, 178.9609375 85.5 M178.9609375 85.5 C69.65767318657711 85.5, -39.64559112684577 85.5, -178.9609375 85.5 M178.9609375 85.5 C85.28837530692554 85.5, -8.38418688614891 85.5, -178.9609375 85.5 M-178.9609375 85.5 C-178.9609375 70.24994487377356, -178.9609375 54.999889747547115, -178.9609375 42.75 M-178.9609375 85.5 C-178.9609375 76.89002303170906, -178.9609375 68.28004606341811, -178.9609375 42.75" stroke="#9370DB" stroke-width="1.3" fill="none" stroke-dasharray="0 0"/></g><g class="label name" transform="translate(-39.984375, -76.125)" style=""><foreignObject width="79.96875" height="24"><div xmlns="http://www.w3.org/1999/xhtml" style="display: table-cell; white-space: nowrap; line-height: 1.5; max-width: 192px; text-align: start;"><span class="nodeLabel"><p>DOCUMENT</p></span></div></foreignObject></g><g class="label attribute-type" transform="translate(-166.4609375, -33.375)" style=""><foreignObject width="30.96875" height="24"><div xmlns="http://www.w3.org/1999/xhtml" style="display: table-cell; white-space: nowrap; line-height: 1.5; max-width: 130px; text-align: start;"><span class="nodeLabel"><p>uuid</p></span></div></foreignObject></g><g class="label attribute-name" transform="translate(-87.7109375, -33.375)" style=""><foreignObject width="13.484375" height="24"><div xmlns="http://www.w3.org/1999/xhtml" style="display: table-cell; white-space: nowrap; line-height: 1.5; max-width: 113px; text-align: start;"><span class="nodeLabel"><p>id</p></span></div></foreignObject></g><g class="label attribute-keys" transform="translate(49.7421875, -33.375)" style=""><foreignObject width="18.140625" height="24"><div xmlns="http://www.w3.org/1999/xhtml" style="display: table-cell; white-space: nowrap; line-height: 1.5; max-width: 122px; text-align: start;"><span class="nodeLabel"><p>PK</p></span></div></foreignObject></g><g class="label attribute-comment" transform="translate(92.8828125, -33.375)" style=""><foreignObject width="0" height="0"><div xmlns="http://www.w3.org/1999/xhtml" style="display: table-cell; white-space: nowrap; line-height: 1.5; max-width: 100px; text-align: start;"><span class="nodeLabel"></span></div></foreignObject></g><g class="label attribute-type" transform="translate(-166.4609375, 9.375)" style=""><foreignObject width="53.75" height="24"><div xmlns="http://www.w3.org/1999/xhtml" style="display: table-cell; white-space: nowrap; line-height: 1.5; max-width: 150px; text-align: start;"><span class="nodeLabel"><p>varchar</p></span></div></foreignObject></g><g class="label attribute-name" transform="translate(-87.7109375, 9.375)" style=""><foreignObject width="30.703125" height="24"><div xmlns="http://www.w3.org/1999/xhtml" style="display: table-cell; white-space: nowrap; line-height: 1.5; max-width: 126px; text-align: start;"><span class="nodeLabel"><p>title</p></span></div></foreignObject></g><g class="label attribute-keys" transform="translate(49.7421875, 9.375)" style=""><foreignObject width="0" height="0"><div xmlns="http://www.w3.org/1999/xhtml" style="display: table-cell; white-space: nowrap; line-height: 1.5; max-width: 100px; text-align: start;"><span class="nodeLabel"></span></div></foreignObject></g><g class="label attribute-comment" transform="translate(92.8828125, 9.375)" style=""><foreignObject width="71.609375" height="24"><div xmlns="http://www.w3.org/1999/xhtml" style="display: table-cell; white-space: nowrap; line-height: 1.5; max-width: 180px; text-align: start;"><span class="nodeLabel"><p>NOT NULL</p></span></div></foreignObject></g><g class="label attribute-type" transform="translate(-166.4609375, 52.125)" style=""><foreignObject width="19.65625" height="24"><div xmlns="http://www.w3.org/1999/xhtml" style="display: table-cell; white-space: nowrap; line-height: 1.5; max-width: 117px; text-align: start;"><span class="nodeLabel"><p>int</p></span></div></foreignObject></g><g class="label attribute-name" transform="translate(-87.7109375, 52.125)" style=""><foreignObject width="112.453125" height="24"><div xmlns="http://www.w3.org/1999/xhtml" style="display: table-cell; white-space: nowrap; line-height: 1.5; max-width: 201px; text-align: start;"><span class="nodeLabel"><p>current_version</p></span></div></foreignObject></g><g class="label attribute-keys" transform="translate(49.7421875, 52.125)" style=""><foreignObject width="0" height="0"><div xmlns="http://www.w3.org/1999/xhtml" style="display: table-cell; white-space: nowrap; line-height: 1.5; max-width: 100px; text-align: start;"><span class="nodeLabel"></span></div></foreignObject></g><g class="label attribute-comment" transform="translate(92.8828125, 52.125)" style=""><foreignObject width="73.578125" height="24"><div xmlns="http://www.w3.org/1999/xhtml" style="display: table-cell; white-space: nowrap; line-height: 1.5; max-width: 183px; text-align: start;"><span class="nodeLabel"><p>DEFAULT 1</p></span></div></foreignObject></g><g class="divider"><path d="M-178.9609375 -42.75005 L-178.9609375 -42.74995 L178.9609375 -42.74995 L178.9609375 -42.75005" stroke="none" stroke-width="0" fill="#ECECFF" fill-rule="evenodd"/><path d="M-178.9609375 -42.75005 C-178.9609375 -42.750028115302044, -178.9609375 -42.750006230604086, -178.9609375 -42.74995 M-178.9609375 -42.75005 C-178.9609375 -42.75001981958693, -178.9609375 -42.74998963917386, -178.9609375 -42.74995 M-178.9609375 -42.74995 C-45.09023606976211 -42.74995, 88.78046536047577 -42.74995, 178.9609375 -42.74995 M-178.9609375 -42.74995 C-96.61387523578686 -42.74995, -14.266812971573728 -42.74995, 178.9609375 -42.74995 M178.9609375 -42.74995 C178.9609375 -42.749986003236664, 178.9609375 -42.75002200647333, 178.9609375 -42.75005 M178.9609375 -42.74995 C178.9609375 -42.74997639420535, 178.9609375 -42.750002788410704, 178.9609375 -42.75005 M178.9609375 -42.75005 C100.67336195133645 -42.75005, 22.385786402672892 -42.75005, -178.9609375 -42.75005 M178.9609375 -42.75005 C90.01912061241381 -42.75005, 1.0773037248276296 -42.75005, -178.9609375 -42.75005" stroke="#9370DB" stroke-width="1.3" fill="none" stroke-dasharray="0 0"/></g><g class="divider"><path d="M-100.2109875 -42.75 L-100.2108875 -42.75 L-100.2108875 85.5 L-100.2109875 85.5" stroke="none" stroke-width="0" fill="#ECECFF" fill-rule="evenodd"/><path d="M-100.2109875 -42.75 C-100.21095785085346 -42.75, -100.21092820170692 -42.75, -100.2108875 -42.75 M-100.2109875 -42.75 C-100.21096538637876 -42.75, -100.21094327275752 -42.75, -100.2108875 -42.75 M-100.2108875 -42.75 C-100.2108875 -0.7721109816525598, -100.2108875 41.20577803669488, -100.2108875 85.5 M-100.2108875 -42.75 C-100.2108875 7.130607432673962, -100.2108875 57.011214865347924, -100.2108875 85.5 M-100.2108875 85.5 C-100.21091830237907 85.5, -100.21094910475814 85.5, -100.2109875 85.5 M-100.2108875 85.5 C-100.21092325515865 85.5, -100.2109590103173 85.5, -100.2109875 85.5 M-100.2109875 85.5 C-100.2109875 37.10500609405637, -100.2109875 -11.289987811887258, -100.2109875 -42.75 M-100.2109875 85.5 C-100.2109875 40.94841352777488, -100.2109875 -3.603172944450236, -100.2109875 -42.75" stroke="#9370DB" stroke-width="1.3" fill="none" stroke-dasharray="0 0"/></g><g class="divider"><path d="M37.2421375 -42.75 L37.2422375 -42.75 L37.2422375 85.5 L37.2421375 85.5" stroke="none" stroke-width="0" fill="#ECECFF" fill-rule="evenodd"/><path d="M37.2421375 -42.75 C37.242167831383384 -42.75, 37.242198162766776 -42.75, 37.2422375 -42.75 M37.2421375 -42.75 C37.24217306637807 -42.75, 37.24220863275614 -42.75, 37.2422375 -42.75 M37.2422375 -42.75 C37.2422375 -3.264315298476717, 37.2422375 36.221369403046566, 37.2422375 85.5 M37.2422375 -42.75 C37.2422375 2.1505319456805765, 37.2422375 47.05106389136115, 37.2422375 85.5 M37.2422375 85.5 C37.24221170949186 85.5, 37.24218591898372 85.5, 37.2421375 85.5 M37.2422375 85.5 C37.242215453439265 85.5, 37.24219340687853 85.5, 37.2421375 85.5 M37.2421375 85.5 C37.2421375 42.27064833626661, 37.2421375 -0.9587033274667789, 37.2421375 -42.75 M37.2421375 85.5 C37.2421375 34.65897070231574, 37.2421375 -16.182058595368517, 37.2421375 -42.75" stroke="#9370DB" stroke-width="1.3" fill="none" stroke-dasharray="0 0"/></g><g class="divider"><path d="M80.3827625 -42.75 L80.3828625 -42.75 L80.3828625 85.5 L80.3827625 85.5" stroke="none" stroke-width="0" fill="#ECECFF" fill-rule="evenodd"/><path d="M80.3827625 -42.75 C80.38279635159795 -42.75, 80.3828302031959 -42.75, 80.3828625 -42.75 M80.3827625 -42.75 C80.38278328490075 -42.75, 80.38280406980151 -42.75, 80.3828625 -42.75 M80.3828625 -42.75 C80.3828625 1.032054620413497, 80.3828625 44.814109240826994, 80.3828625 85.5 M80.3828625 -42.75 C80.3828625 -0.0235110080024441, 80.3828625 42.70297798399511, 80.3828625 85.5 M80.3828625 85.5 C80.38283078851404 85.5, 80.38279907702807 85.5, 80.3827625 85.5 M80.3828625 85.5 C80.38283255917403 85.5, 80.38280261834807 85.5, 80.3827625 85.5 M80.3827625 85.5 C80.3827625 57.074260299159036, 80.3827625 28.64852059831808, 80.3827625 -42.75 M80.3827625 85.5 C80.3827625 35.00258510673882, 80.3827625 -15.49482978652236, 80.3827625 -42.75" stroke="#9370DB" stroke-width="1.3" fill="none" stroke-dasharray="0 0"/></g><g class="divider"><path d="M-178.9609375 -42.75005 L-178.9609375 -42.74995 L178.9609375 -42.74995 L178.9609375 -42.75005" stroke="none" stroke-width="0" fill="#ECECFF" fill-rule="evenodd"/><path d="M-178.9609375 -42.75005 C-178.9609375 -42.750012824873814, -178.9609375 -42.749975649747626, -178.9609375 -42.74995 M-178.9609375 -42.75005 C-178.9609375 -42.750021816547594, -178.9609375 -42.74999363309519, -178.9609375 -42.74995 M-178.9609375 -42.74995 C-90.84122283809481 -42.74995, -2.721508176189616 -42.74995, 178.9609375 -42.74995 M-178.9609375 -42.74995 C-60.39489036824045 -42.74995, 58.17115676351909 -42.74995, 178.9609375 -42.74995 M178.9609375 -42.74995 C178.9609375 -42.749973768722136, 178.9609375 -42.74999753744428, 178.9609375 -42.75005 M178.9609375 -42.74995 C178.9609375 -42.749977184238, 178.9609375 -42.750004368476006, 178.9609375 -42.75005 M178.9609375 -42.75005 C95.52770043898232 -42.75005, 12.094463377964644 -42.75005, -178.9609375 -42.75005 M178.9609375 -42.75005 C95.02937888129948 -42.75005, 11.097820262598958 -42.75005, -178.9609375 -42.75005" stroke="#9370DB" stroke-width="1.3" fill="none" stroke-dasharray="0 0"/></g></g><g class="node default" id="my-svg-entity-DOCUMENT_VERSION-1" data-look="classic" transform="translate(218.109375, 429.625)"><g class="outer-path" style=""><path d="M-210.109375 -149.625 L210.109375 -149.625 L210.109375 149.625 L-210.109375 149.625" stroke="none" stroke-width="0" fill="#ECECFF"/><path d="M-210.109375 -149.625 C-116.46281366043266 -149.625, -22.816252320865317 -149.625, 210.109375 -149.625 M-210.109375 -149.625 C-91.54871700714035 -149.625, 27.011940985719292 -149.625, 210.109375 -149.625 M210.109375 -149.625 C210.109375 -82.02277640967903, 210.109375 -14.42055281935805, 210.109375 149.625 M210.109375 -149.625 C210.109375 -40.98412990744474, 210.109375 67.65674018511052, 210.109375 149.625 M210.109375 149.625 C88.73964348529776 149.625, -32.630088029404476 149.625, -210.109375 149.625 M210.109375 149.625 C59.03965122731802 149.625, -92.03007254536396 149.625, -210.109375 149.625 M-210.109375 149.625 C-210.109375 68.00477983730845, -210.109375 -13.615440325383105, -210.109375 -149.625 M-210.109375 149.625 C-210.109375 71.38341861766953, -210.109375 -6.858162764660932, -210.109375 -149.625" stroke="#9370DB" stroke-width="1.3" fill="none" stroke-dasharray="0 0"/></g><g style="" class="row-rect-odd"><path d="M-210.109375 -106.875 L210.109375 -106.875 L210.109375 -64.125 L-210.109375 -64.125" stroke="none" stroke-width="0" fill="hsl(240, 100%, 100%)"/><path d="M-210.109375 -106.875 C-110.64303191520327 -106.875, -11.176688830406533 -106.875, 210.109375 -106.875 M-210.109375 -106.875 C-113.23977180372263 -106.875, -16.370168607445265 -106.875, 210.109375 -106.875 M210.109375 -106.875 C210.109375 -94.58510011238522, 210.109375 -82.29520022477045, 210.109375 -64.125 M210.109375 -106.875 C210.109375 -95.85462631087671, 210.109375 -84.83425262175342, 210.109375 -64.125 M210.109375 -64.125 C100.67165611068846 -64.125, -8.76606277862308 -64.125, -210.109375 -64.125 M210.109375 -64.125 C114.00092660115735 -64.125, 17.89247820231469 -64.125, -210.109375 -64.125 M-210.109375 -64.125 C-210.109375 -80.7425017167769, -210.109375 -97.3600034335538, -210.109375 -106.875 M-210.109375 -64.125 C-210.109375 -77.7201565272637, -210.109375 -91.3153130545274, -210.109375 -106.875" stroke="#9370DB" stroke-width="1.3" fill="none" stroke-dasharray="0 0"/></g><g style="" class="row-rect-even"><path d="M-210.109375 -64.125 L210.109375 -64.125 L210.109375 -21.375 L-210.109375 -21.375" stroke="none" stroke-width="0" fill="hsl(240, 100%, 97.2745098039%)"/><path d="M-210.109375 -64.125 C-78.13774755317542 -64.125, 53.83387989364917 -64.125, 210.109375 -64.125 M-210.109375 -64.125 C-121.55087582988868 -64.125, -32.992376659777364 -64.125, 210.109375 -64.125 M210.109375 -64.125 C210.109375 -49.70551246091259, 210.109375 -35.286024921825174, 210.109375 -21.375 M210.109375 -64.125 C210.109375 -48.36456364788218, 210.109375 -32.604127295764364, 210.109375 -21.375 M210.109375 -21.375 C89.9926168007274 -21.375, -30.12414139854519 -21.375, -210.109375 -21.375 M210.109375 -21.375 C101.98958030965599 -21.375, -6.130214380688017 -21.375, -210.109375 -21.375 M-210.109375 -21.375 C-210.109375 -36.09999538183746, -210.109375 -50.82499076367492, -210.109375 -64.125 M-210.109375 -21.375 C-210.109375 -31.124690644254883, -210.109375 -40.87438128850977, -210.109375 -64.125" stroke="#9370DB" stroke-width="1.3" fill="none" stroke-dasharray="0 0"/></g><g style="" class="row-rect-odd"><path d="M-210.109375 -21.375 L210.109375 -21.375 L210.109375 21.375 L-210.109375 21.375" stroke="none" stroke-width="0" fill="hsl(240, 100%, 100%)"/><path d="M-210.109375 -21.375 C-51.3264906614813 -21.375, 107.4563936770374 -21.375, 210.109375 -21.375 M-210.109375 -21.375 C-64.93552627816365 -21.375, 80.2383224436727 -21.375, 210.109375 -21.375 M210.109375 -21.375 C210.109375 -12.079879430834021, 210.109375 -2.784758861668042, 210.109375 21.375 M210.109375 -21.375 C210.109375 -5.659004782111712, 210.109375 10.056990435776576, 210.109375 21.375 M210.109375 21.375 C103.46961949368736 21.375, -3.170136012625278 21.375, -210.109375 21.375 M210.109375 21.375 C51.74913207291925 21.375, -106.6111108541615 21.375, -210.109375 21.375 M-210.109375 21.375 C-210.109375 8.501757233180578, -210.109375 -4.371485533638843, -210.109375 -21.375 M-210.109375 21.375 C-210.109375 5.055650952704262, -210.109375 -11.263698094591476, -210.109375 -21.375" stroke="#9370DB" stroke-width="1.3" fill="none" stroke-dasharray="0 0"/></g><g style="" class="row-rect-even"><path d="M-210.109375 21.375 L210.109375 21.375 L210.109375 64.125 L-210.109375 64.125" stroke="none" stroke-width="0" fill="hsl(240, 100%, 97.2745098039%)"/><path d="M-210.109375 21.375 C-81.46747270692924 21.375, 47.174429586141514 21.375, 210.109375 21.375 M-210.109375 21.375 C-55.63916465145374 21.375, 98.83104569709252 21.375, 210.109375 21.375 M210.109375 21.375 C210.109375 35.01006212174867, 210.109375 48.645124243497335, 210.109375 64.125 M210.109375 21.375 C210.109375 33.77786314838435, 210.109375 46.1807262967687, 210.109375 64.125 M210.109375 64.125 C96.95238340257747 64.125, -16.204608194845065 64.125, -210.109375 64.125 M210.109375 64.125 C105.1409080490634 64.125, 0.17244109812679653 64.125, -210.109375 64.125 M-210.109375 64.125 C-210.109375 47.73404108512412, -210.109375 31.343082170248238, -210.109375 21.375 M-210.109375 64.125 C-210.109375 54.74164869069202, -210.109375 45.358297381384034, -210.109375 21.375" stroke="#9370DB" stroke-width="1.3" fill="none" stroke-dasharray="0 0"/></g><g style="" class="row-rect-odd"><path d="M-210.109375 64.125 L210.109375 64.125 L210.109375 106.875 L-210.109375 106.875" stroke="none" stroke-width="0" fill="hsl(240, 100%, 100%)"/><path d="M-210.109375 64.125 C-84.75007526332443 64.125, 40.609224473351134 64.125, 210.109375 64.125 M-210.109375 64.125 C-87.17943692097701 64.125, 35.75050115804598 64.125, 210.109375 64.125 M210.109375 64.125 C210.109375 73.31020707410812, 210.109375 82.49541414821624, 210.109375 106.875 M210.109375 64.125 C210.109375 79.66871545049705, 210.109375 95.2124309009941, 210.109375 106.875 M210.109375 106.875 C79.65483793832823 106.875, -50.799699123343544 106.875, -210.109375 106.875 M210.109375 106.875 C68.47178278590246 106.875, -73.16580942819508 106.875, -210.109375 106.875 M-210.109375 106.875 C-210.109375 95.69673837480906, -210.109375 84.51847674961812, -210.109375 64.125 M-210.109375 106.875 C-210.109375 97.35447464997975, -210.109375 87.8339492999595, -210.109375 64.125" stroke="#9370DB" stroke-width="1.3" fill="none" stroke-dasharray="0 0"/></g><g style="" class="row-rect-even"><path d="M-210.109375 106.875 L210.109375 106.875 L210.109375 149.625 L-210.109375 149.625" stroke="none" stroke-width="0" fill="hsl(240, 100%, 97.2745098039%)"/><path d="M-210.109375 106.875 C-50.596734170895246 106.875, 108.91590665820951 106.875, 210.109375 106.875 M-210.109375 106.875 C-65.89968967362873 106.875, 78.30999565274254 106.875, 210.109375 106.875 M210.109375 106.875 C210.109375 121.91553434166741, 210.109375 136.95606868333482, 210.109375 149.625 M210.109375 106.875 C210.109375 116.81828044074652, 210.109375 126.76156088149305, 210.109375 149.625 M210.109375 149.625 C78.26634719889944 149.625, -53.57668060220112 149.625, -210.109375 149.625 M210.109375 149.625 C101.61936236581597 149.625, -6.870650268368053 149.625, -210.109375 149.625 M-210.109375 149.625 C-210.109375 136.34966265100687, -210.109375 123.07432530201375, -210.109375 106.875 M-210.109375 149.625 C-210.109375 139.4294324670769, -210.109375 129.23386493415384, -210.109375 106.875" stroke="#9370DB" stroke-width="1.3" fill="none" stroke-dasharray="0 0"/></g><g class="label name" transform="translate(-74.390625, -140.25)" style=""><foreignObject width="148.78125" height="24"><div xmlns="http://www.w3.org/1999/xhtml" style="display: table-cell; white-space: nowrap; line-height: 1.5; max-width: 269px; text-align: start;"><span class="nodeLabel"><p>DOCUMENT_VERSION</p></span></div></foreignObject></g><g class="label attribute-type" transform="translate(-197.609375, -97.5)" style=""><foreignObject width="30.96875" height="24"><div xmlns="http://www.w3.org/1999/xhtml" style="display: table-cell; white-space: nowrap; line-height: 1.5; max-width: 130px; text-align: start;"><span class="nodeLabel"><p>uuid</p></span></div></foreignObject></g><g class="label attribute-name" transform="translate(-96.265625, -97.5)" style=""><foreignObject width="13.484375" height="24"><div xmlns="http://www.w3.org/1999/xhtml" style="display: table-cell; white-space: nowrap; line-height: 1.5; max-width: 113px; text-align: start;"><span class="nodeLabel"><p>id</p></span></div></foreignObject></g><g class="label attribute-keys" transform="translate(42.90625, -97.5)" style=""><foreignObject width="18.140625" height="24"><div xmlns="http://www.w3.org/1999/xhtml" style="display: table-cell; white-space: nowrap; line-height: 1.5; max-width: 122px; text-align: start;"><span class="nodeLabel"><p>PK</p></span></div></foreignObject></g><g class="label attribute-comment" transform="translate(86.046875, -97.5)" style=""><foreignObject width="0" height="0"><div xmlns="http://www.w3.org/1999/xhtml" style="display: table-cell; white-space: nowrap; line-height: 1.5; max-width: 100px; text-align: start;"><span class="nodeLabel"></span></div></foreignObject></g><g class="label attribute-type" transform="translate(-197.609375, -54.75)" style=""><foreignObject width="30.96875" height="24"><div xmlns="http://www.w3.org/1999/xhtml" style="display: table-cell; white-space: nowrap; line-height: 1.5; max-width: 130px; text-align: start;"><span class="nodeLabel"><p>uuid</p></span></div></foreignObject></g><g class="label attribute-name" transform="translate(-96.265625, -54.75)" style=""><foreignObject width="93.125" height="24"><div xmlns="http://www.w3.org/1999/xhtml" style="display: table-cell; white-space: nowrap; line-height: 1.5; max-width: 185px; text-align: start;"><span class="nodeLabel"><p>document_id</p></span></div></foreignObject></g><g class="label attribute-keys" transform="translate(42.90625, -54.75)" style=""><foreignObject width="17.609375" height="24"><div xmlns="http://www.w3.org/1999/xhtml" style="display: table-cell; white-space: nowrap; line-height: 1.5; max-width: 122px; text-align: start;"><span class="nodeLabel"><p>FK</p></span></div></foreignObject></g><g class="label attribute-comment" transform="translate(86.046875, -54.75)" style=""><foreignObject width="71.609375" height="24"><div xmlns="http://www.w3.org/1999/xhtml" style="display: table-cell; white-space: nowrap; line-height: 1.5; max-width: 180px; text-align: start;"><span class="nodeLabel"><p>NOT NULL</p></span></div></foreignObject></g><g class="label attribute-type" transform="translate(-197.609375, -12)" style=""><foreignObject width="19.65625" height="24"><div xmlns="http://www.w3.org/1999/xhtml" style="display: table-cell; white-space: nowrap; line-height: 1.5; max-width: 117px; text-align: start;"><span class="nodeLabel"><p>int</p></span></div></foreignObject></g><g class="label attribute-name" transform="translate(-96.265625, -12)" style=""><foreignObject width="114.171875" height="24"><div xmlns="http://www.w3.org/1999/xhtml" style="display: table-cell; white-space: nowrap; line-height: 1.5; max-width: 206px; text-align: start;"><span class="nodeLabel"><p>version_number</p></span></div></foreignObject></g><g class="label attribute-keys" transform="translate(42.90625, -12)" style=""><foreignObject width="0" height="0"><div xmlns="http://www.w3.org/1999/xhtml" style="display: table-cell; white-space: nowrap; line-height: 1.5; max-width: 100px; text-align: start;"><span class="nodeLabel"></span></div></foreignObject></g><g class="label attribute-comment" transform="translate(86.046875, -12)" style=""><foreignObject width="71.609375" height="24"><div xmlns="http://www.w3.org/1999/xhtml" style="display: table-cell; white-space: nowrap; line-height: 1.5; max-width: 180px; text-align: start;"><span class="nodeLabel"><p>NOT NULL</p></span></div></foreignObject></g><g class="label attribute-type" transform="translate(-197.609375, 30.75)" style=""><foreignObject width="29.4375" height="24"><div xmlns="http://www.w3.org/1999/xhtml" style="display: table-cell; white-space: nowrap; line-height: 1.5; max-width: 126px; text-align: start;"><span class="nodeLabel"><p>text</p></span></div></foreignObject></g><g class="label attribute-name" transform="translate(-96.265625, 30.75)" style=""><foreignObject width="55.40625" height="24"><div xmlns="http://www.w3.org/1999/xhtml" style="display: table-cell; white-space: nowrap; line-height: 1.5; max-width: 148px; text-align: start;"><span class="nodeLabel"><p>content</p></span></div></foreignObject></g><g class="label attribute-keys" transform="translate(42.90625, 30.75)" style=""><foreignObject width="0" height="0"><div xmlns="http://www.w3.org/1999/xhtml" style="display: table-cell; white-space: nowrap; line-height: 1.5; max-width: 100px; text-align: start;"><span class="nodeLabel"></span></div></foreignObject></g><g class="label attribute-comment" transform="translate(86.046875, 30.75)" style=""><foreignObject width="71.609375" height="24"><div xmlns="http://www.w3.org/1999/xhtml" style="display: table-cell; white-space: nowrap; line-height: 1.5; max-width: 180px; text-align: start;"><span class="nodeLabel"><p>NOT NULL</p></span></div></foreignObject></g><g class="label attribute-type" transform="translate(-197.609375, 73.5)" style=""><foreignObject width="30.96875" height="24"><div xmlns="http://www.w3.org/1999/xhtml" style="display: table-cell; white-space: nowrap; line-height: 1.5; max-width: 130px; text-align: start;"><span class="nodeLabel"><p>uuid</p></span></div></foreignObject></g><g class="label attribute-name" transform="translate(-96.265625, 73.5)" style=""><foreignObject width="88.65625" height="24"><div xmlns="http://www.w3.org/1999/xhtml" style="display: table-cell; white-space: nowrap; line-height: 1.5; max-width: 184px; text-align: start;"><span class="nodeLabel"><p>modified_by</p></span></div></foreignObject></g><g class="label attribute-keys" transform="translate(42.90625, 73.5)" style=""><foreignObject width="17.609375" height="24"><div xmlns="http://www.w3.org/1999/xhtml" style="display: table-cell; white-space: nowrap; line-height: 1.5; max-width: 122px; text-align: start;"><span class="nodeLabel"><p>FK</p></span></div></foreignObject></g><g class="label attribute-comment" transform="translate(86.046875, 73.5)" style=""><foreignObject width="0" height="0"><div xmlns="http://www.w3.org/1999/xhtml" style="display: table-cell; white-space: nowrap; line-height: 1.5; max-width: 100px; text-align: start;"><span class="nodeLabel"></span></div></foreignObject></g><g class="label attribute-type" transform="translate(-197.609375, 116.25)" style=""><foreignObject width="76.34375" height="24"><div xmlns="http://www.w3.org/1999/xhtml" style="display: table-cell; white-space: nowrap; line-height: 1.5; max-width: 168px; text-align: start;"><span class="nodeLabel"><p>timestamp</p></span></div></foreignObject></g><g class="label attribute-name" transform="translate(-96.265625, 116.25)" style=""><foreignObject width="78.40625" height="24"><div xmlns="http://www.w3.org/1999/xhtml" style="display: table-cell; white-space: nowrap; line-height: 1.5; max-width: 166px; text-align: start;"><span class="nodeLabel"><p>created_at</p></span></div></foreignObject></g><g class="label attribute-keys" transform="translate(42.90625, 116.25)" style=""><foreignObject width="0" height="0"><div xmlns="http://www.w3.org/1999/xhtml" style="display: table-cell; white-space: nowrap; line-height: 1.5; max-width: 100px; text-align: start;"><span class="nodeLabel"></span></div></foreignObject></g><g class="label attribute-comment" transform="translate(86.046875, 116.25)" style=""><foreignObject width="111.5625" height="24"><div xmlns="http://www.w3.org/1999/xhtml" style="display: table-cell; white-space: nowrap; line-height: 1.5; max-width: 224px; text-align: start;"><span class="nodeLabel"><p>DEFAULT NOW()</p></span></div></foreignObject></g><g class="divider"><path d="M-210.109375 -106.87505 L-210.109375 -106.87495 L210.109375 -106.87495 L210.109375 -106.87505" stroke="none" stroke-width="0" fill="#ECECFF" fill-rule="evenodd"/><path d="M-210.109375 -106.87505 C-210.109375 -106.8750155909952, -210.109375 -106.8749811819904, -210.109375 -106.87495 M-210.109375 -106.87505 C-210.109375 -106.87501296741301, -210.109375 -106.87497593482601, -210.109375 -106.87495 M-210.109375 -106.87495 C-70.23004684952858 -106.87495, 69.64928130094285 -106.87495, 210.109375 -106.87495 M-210.109375 -106.87495 C-114.18364169297394 -106.87495, -18.25790838594787 -106.87495, 210.109375 -106.87495 M210.109375 -106.87495 C210.109375 -106.87497188475274, 210.109375 -106.87499376950548, 210.109375 -106.87505 M210.109375 -106.87495 C210.109375 -106.87498033043424, 210.109375 -106.87501066086848, 210.109375 -106.87505 M210.109375 -106.87505 C96.24796604905956 -106.87505, -17.613442901880887 -106.87505, -210.109375 -106.87505 M210.109375 -106.87505 C95.83369580771588 -106.87505, -18.441983384568232 -106.87505, -210.109375 -106.87505" stroke="#9370DB" stroke-width="1.3" fill="none" stroke-dasharray="0 0"/></g><g class="divider"><path d="M-108.765675 -106.875 L-108.765575 -106.875 L-108.765575 149.625 L-108.765675 149.625" stroke="none" stroke-width="0" fill="#ECECFF" fill-rule="evenodd"/><path d="M-108.765675 -106.875 C-108.76564480619291 -106.875, -108.76561461238582 -106.875, -108.765575 -106.875 M-108.765675 -106.875 C-108.7656372741388 -106.875, -108.76559954827759 -106.875, -108.765575 -106.875 M-108.765575 -106.875 C-108.765575 -26.42450679329862, -108.765575 54.02598641340276, -108.765575 149.625 M-108.765575 -106.875 C-108.765575 -15.855408351096557, -108.765575 75.16418329780689, -108.765575 149.625 M-108.765575 149.625 C-108.76559924541228 149.625, -108.76562349082457 149.625, -108.765675 149.625 M-108.765575 149.625 C-108.76559811166946 149.625, -108.76562122333894 149.625, -108.765675 149.625 M-108.765675 149.625 C-108.765675 95.2886162673456, -108.765675 40.952232534691206, -108.765675 -106.875 M-108.765675 149.625 C-108.765675 73.84554059560506, -108.765675 -1.9339188087898833, -108.765675 -106.875" stroke="#9370DB" stroke-width="1.3" fill="none" stroke-dasharray="0 0"/></g><g class="divider"><path d="M30.4062 -106.875 L30.4063 -106.875 L30.4063 149.625 L30.4062 149.625" stroke="none" stroke-width="0" fill="#ECECFF" fill-rule="evenodd"/><path d="M30.4062 -106.875 C30.40623600952479 -106.875, 30.406272019049577 -106.875, 30.4063 -106.875 M30.4062 -106.875 C30.40622299849191 -106.875, 30.406245996983824 -106.875, 30.4063 -106.875 M30.4063 -106.875 C30.4063 -43.612107900109955, 30.4063 19.65078419978009, 30.4063 149.625 M30.4063 -106.875 C30.4063 -43.65732702433437, 30.4063 19.560345951331257, 30.4063 149.625 M30.4063 149.625 C30.406271689705605 149.625, 30.406243379411208 149.625, 30.4062 149.625 M30.4063 149.625 C30.406278453731208 149.625, 30.40625690746241 149.625, 30.4062 149.625 M30.4062 149.625 C30.4062 86.88291817055757, 30.4062 24.140836341115147, 30.4062 -106.875 M30.4062 149.625 C30.4062 87.08083885633349, 30.4062 24.536677712666986, 30.4062 -106.875" stroke="#9370DB" stroke-width="1.3" fill="none" stroke-dasharray="0 0"/></g><g class="divider"><path d="M73.546825 -106.875 L73.546925 -106.875 L73.546925 149.625 L73.546825 149.625" stroke="none" stroke-width="0" fill="#ECECFF" fill-rule="evenodd"/><path d="M73.546825 -106.875 C73.54686071906791 -106.875, 73.5468964381358 -106.875, 73.546925 -106.875 M73.546825 -106.875 C73.54685501682542 -106.875, 73.54688503365084 -106.875, 73.546925 -106.875 M73.546925 -106.875 C73.546925 -31.591909535447797, 73.546925 43.691180929104405, 73.546925 149.625 M73.546925 -106.875 C73.546925 -7.1604612659783555, 73.546925 92.55407746804329, 73.546925 149.625 M73.546925 149.625 C73.54689202632542 149.625, 73.54685905265083 149.625, 73.546825 149.625 M73.546925 149.625 C73.54689821723356 149.625, 73.5468714344671 149.625, 73.546825 149.625 M73.546825 149.625 C73.546825 54.91297424248141, 73.546825 -39.79905151503718, 73.546825 -106.875 M73.546825 149.625 C73.546825 60.844333202869336, 73.546825 -27.936333594261328, 73.546825 -106.875" stroke="#9370DB" stroke-width="1.3" fill="none" stroke-dasharray="0 0"/></g><g class="divider"><path d="M-210.109375 -106.87505 L-210.109375 -106.87495 L210.109375 -106.87495 L210.109375 -106.87505" stroke="none" stroke-width="0" fill="#ECECFF" fill-rule="evenodd"/><path d="M-210.109375 -106.87505 C-210.109375 -106.87502384098765, -210.109375 -106.87499768197532, -210.109375 -106.87495 M-210.109375 -106.87505 C-210.109375 -106.87502293710193, -210.109375 -106.87499587420388, -210.109375 -106.87495 M-210.109375 -106.87495 C-85.64514612274981 -106.87495, 38.819082754500386 -106.87495, 210.109375 -106.87495 M-210.109375 -106.87495 C-96.40466514195678 -106.87495, 17.300044716086433 -106.87495, 210.109375 -106.87495 M210.109375 -106.87495 C210.109375 -106.874979719026, 210.109375 -106.875009438052, 210.109375 -106.87505 M210.109375 -106.87495 C210.109375 -106.87498728313435, 210.109375 -106.87502456626868, 210.109375 -106.87505 M210.109375 -106.87505 C90.20903592011737 -106.87505, -29.691303159765255 -106.87505, -210.109375 -106.87505 M210.109375 -106.87505 C95.94607715739316 -106.87505, -18.217220685213675 -106.87505, -210.109375 -106.87505" stroke="#9370DB" stroke-width="1.3" fill="none" stroke-dasharray="0 0"/></g></g></g></g></g><defs><filter id="my-svg-drop-shadow" height="130%" width="130%"><feDropShadow dx="4" dy="4" stdDeviation="0" flood-opacity="0.06" flood-color="#000000"/></filter></defs><defs><filter id="my-svg-drop-shadow-small" height="150%" width="150%"><feDropShadow dx="2" dy="2" stdDeviation="0" flood-opacity="0.06" flood-color="#000000"/></filter></defs></svg>