<svg id="my-svg" width="100%" xmlns="http://www.w3.org/2000/svg" xmlns:xlink="http://www.w3.org/1999/xlink" class="erDiagram" style="max-width: 329.062px; background-color: white;" viewBox="0 0 329.0625 368.25" role="graphics-document document" aria-roledescription="er"><style>#my-svg{font-family:"trebuchet ms",verdana,arial,sans-serif;font-size:16px;fill:#333;}@keyframes edge-animation-frame{from{stroke-dashoffset:0;}}@keyframes dash{to{stroke-dashoffset:0;}}#my-svg .edge-animation-slow{stroke-dasharray:9,5!important;stroke-dashoffset:900;animation:dash 50s linear infinite;stroke-linecap:round;}#my-svg .edge-animation-fast{stroke-dasharray:9,5!important;stroke-dashoffset:900;animation:dash 20s linear infinite;stroke-linecap:round;}#my-svg .error-icon{fill:#552222;}#my-svg .error-text{fill:#552222;stroke:#552222;}#my-svg .edge-thickness-normal{stroke-width:1px;}#my-svg .edge-thickness-thick{stroke-width:3.5px;}#my-svg .edge-pattern-solid{stroke-dasharray:0;}#my-svg .edge-thickness-invisible{stroke-width:0;fill:none;}#my-svg .edge-pattern-dashed{stroke-dasharray:3;}#my-svg .edge-pattern-dotted{stroke-dasharray:2;}#my-svg .marker{fill:#333333;stroke:#333333;}#my-svg .marker.cross{stroke:#333333;}#my-svg svg{font-family:"trebuchet ms",verdana,arial,sans-serif;font-size:16px;}#my-svg p{margin:0;}#my-svg .entityBox{fill:#ECECFF;stroke:#9370DB;}#my-svg .relationshipLabelBox{fill:hsl(80, 100%, 96.2745098039%);opacity:0.7;background-color:hsl(80, 100%, 96.2745098039%);}#my-svg .relationshipLabelBox rect{opacity:0.5;}#my-svg .labelBkg{background-color:rgba(248.6666666666, 255, 235.9999999999, 0.5);}#my-svg .edgeLabel{background-color:rgba(232,232,232, 0.8);}#my-svg .edgeLabel .label rect{fill:rgba(232,232,232, 0.8);}#my-svg .edgeLabel .label text{fill:#333;}#my-svg .edgeLabel .label{fill:#9370DB;font-size:14px;}#my-svg .label{font-family:"trebuchet ms",verdana,arial,sans-serif;color:#333;}#my-svg .edge-pattern-dashed{stroke-dasharray:8,8;}#my-svg .node rect,#my-svg .node circle,#my-svg .node ellipse,#my-svg .node polygon{fill:#ECECFF;stroke:#9370DB;stroke-width:1px;}#my-svg .relationshipLine{stroke:#333333;stroke-width:1px;fill:none;}#my-svg .marker{fill:none!important;stroke:#333333!important;stroke-width:1;}#my-svg [data-look=neo].labelBkg{background-color:rgba(248.6666666666, 255, 235.9999999999, 0.5);}#my-svg .cluster rect{fill:#ffffde;stroke:#aaaa33;stroke-width:1px;}#my-svg .cluster text{fill:#333;}#my-svg .cluster-label text{fill:#333;}#my-svg .node .neo-node{stroke:#9370DB;}#my-svg [data-look="neo"].node rect,#my-svg [data-look="neo"].cluster rect,#my-svg [data-look="neo"].node polygon{stroke:#9370DB;filter:drop-shadow(1px 2px 2px rgba(185, 185, 185, 1));}#my-svg [data-look="neo"].swimlane.cluster rect{filter:none;}#my-svg [data-look="neo"].node path{stroke:#9370DB;stroke-width:1px;}#my-svg [data-look="neo"].node .outer-path{filter:drop-shadow(1px 2px 2px rgba(185, 185, 185, 1));}#my-svg [data-look="neo"].node .neo-line path{stroke:#9370DB;filter:none;}#my-svg [data-look="neo"].node circle{stroke:#9370DB;filter:drop-shadow(1px 2px 2px rgba(185, 185, 185, 1));}#my-svg [data-look="neo"].node circle .state-start{fill:#000000;}#my-svg [data-look="neo"].icon-shape .icon{fill:#9370DB;filter:drop-shadow(1px 2px 2px rgba(185, 185, 185, 1));}#my-svg [data-look="neo"].icon-shape .icon-neo path{stroke:#9370DB;filter:drop-shadow(1px 2px 2px rgba(185, 185, 185, 1));}#my-svg :root{--mermaid-font-family:"trebuchet ms",verdana,arial,sans-serif;}</style><g><defs><marker id="my-svg_er-onlyOneStart" class="marker onlyOne er" refX="0" refY="9" markerWidth="18" markerHeight="18" orient="auto"><path d="M9,0 L9,18 M15,0 L15,18"/></marker></defs><defs><marker id="my-svg_er-onlyOneEnd" class="marker onlyOne er" refX="18" refY="9" markerWidth="18" markerHeight="18" orient="auto"><path d="M3,0 L3,18 M9,0 L9,18"/></marker></defs><defs><marker id="my-svg_er-zeroOrOneStart" class="marker zeroOrOne er" refX="0" refY="9" markerWidth="30" markerHeight="18" orient="auto"><circle fill="white" cx="21" cy="9" r="6"/><path d="M9,0 L9,18"/></marker></defs><defs><marker id="my-svg_er-zeroOrOneEnd" class="marker zeroOrOne er" refX="30" refY="9" markerWidth="30" markerHeight="18" orient="auto"><circle fill="white" cx="9" cy="9" r="6"/><path d="M21,0 L21,18"/></marker></defs><defs><marker id="my-svg_er-oneOrMoreStart" class="marker oneOrMore er" refX="18" refY="18" markerWidth="45" markerHeight="36" orient="auto"><path d="M0,18 Q 18,0 36,18 Q 18,36 0,18 M42,9 L42,27"/></marker></defs><defs><marker id="my-svg_er-oneOrMoreEnd" class="marker oneOrMore er" refX="27" refY="18" markerWidth="45" markerHeight="36" orient="auto"><path d="M3,9 L3,27 M9,18 Q27,0 45,18 Q27,36 9,18"/></marker></defs><defs><marker id="my-svg_er-zeroOrMoreStart" class="marker zeroOrMore er" refX="18" refY="18" markerWidth="57" markerHeight="36" orient="auto"><circle fill="white" cx="48" cy="18" r="6"/><path d="M0,18 Q18,0 36,18 Q18,36 0,18"/></marker></defs><defs><marker id="my-svg_er-zeroOrMoreEnd" class="marker zeroOrMore er" refX="39" refY="18" markerWidth="57" markerHeight="36" orient="auto"><circle fill="white" cx="9" cy="18" r="6"/><path d="M21,18 Q39,0 57,18 Q39,36 21,18"/></marker></defs><g class="root"><g class="clusters"/><g class="edgePaths"><path d="M132.509,179L129.513,187C126.516,195,120.524,211,134.194,219C147.865,227,181.198,227,194.868,219C208.539,211,202.546,195,199.55,187L196.554,179" id="my-svg-id_entity-CATEGORY-0_entity-CATEGORY-0_0" class="edge-thickness-normal edge-pattern-solid relationshipLine" style="undefined;;;undefined" data-edge="true" data-et="edge" data-id="id_entity-CATEGORY-0_entity-CATEGORY-0_0" data-points="W3sieCI6MTMyLjUwODc3ODA4OTg4NzY0LCJ5IjoxNzl9LHsieCI6MTE0LjUzMTI1LCJ5IjoyMjd9LHsieCI6MjE0LjUzMTI1LCJ5IjoyMjd9LHsieCI6MTk2LjU1MzcyMTkxMDExMjM2LCJ5IjoxNzl9XQ==" data-look="classic" marker-start="url(#my-svg_er-onlyOneStart)" marker-end="url(#my-svg_er-zeroOrMoreEnd)"/></g><g class="edgeLabels"><g class="edgeLabel" transform="translate(164.53125, 241.5)"><g class="label" data-id="id_entity-CATEGORY-0_entity-CATEGORY-0_0" transform="translate(-29.171875, -10.5)"><foreignObject width="58.34375" height="21"><div xmlns="http://www.w3.org/1999/xhtml" class="labelBkg" style="display: table-cell; white-space: nowrap; line-height: 1.5; max-width: 200px; text-align: center;"><span class="edgeLabel"><p>parent of</p></span></div></foreignObject></g></g></g><g class="nodes"><g class="node default" id="my-svg-entity-CATEGORY-0" data-look="classic" transform="translate(164.53125, 93.5)"><g class="outer-path" style=""><path d="M-156.53125 -85.5 L156.53125 -85.5 L156.53125 85.5 L-156.53125 85.5" stroke="none" stroke-width="0" fill="#ECECFF"/><path d="M-156.53125 -85.5 C-88.83108518363632 -85.5, -21.130920367272637 -85.5, 156.53125 -85.5 M-156.53125 -85.5 C-82.08177005723745 -85.5, -7.632290114474898 -85.5, 156.53125 -85.5 M156.53125 -85.5 C156.53125 -28.788116210993294, 156.53125 27.92376757801341, 156.53125 85.5 M156.53125 -85.5 C156.53125 -41.90879599887753, 156.53125 1.6824080022449408, 156.53125 85.5 M156.53125 85.5 C32.811967452235436 85.5, -90.90731509552913 85.5, -156.53125 85.5 M156.53125 85.5 C67.52949940107605 85.5, -21.472251197847896 85.5, -156.53125 85.5 M-156.53125 85.5 C-156.53125 23.146650980634348, -156.53125 -39.206698038731304, -156.53125 -85.5 M-156.53125 85.5 C-156.53125 50.41206478057769, -156.53125 15.324129561155374, -156.53125 -85.5" stroke="#9370DB" stroke-width="1.3" fill="none" stroke-dasharray="0 0"/></g><g style="" class="row-rect-odd"><path d="M-156.53125 -42.75 L156.53125 -42.75 L156.53125 0 L-156.53125 0" stroke="none" stroke-width="0" fill="hsl(240, 100%, 100%)"/><path d="M-156.53125 -42.75 C-35.52327570008488 -42.75, 85.48469859983024 -42.75, 156.53125 -42.75 M-156.53125 -42.75 C-71.3879165292652 -42.75, 13.755416941469605 -42.75, 156.53125 -42.75 M156.53125 -42.75 C156.53125 -29.03073668475025, 156.53125 -15.311473369500497, 156.53125 0 M156.53125 -42.75 C156.53125 -28.066907734276498, 156.53125 -13.383815468553, 156.53125 0 M156.53125 0 C70.34949962761614 0, -15.83225074476772 0, -156.53125 0 M156.53125 0 C89.80567202863075 0, 23.080094057261505 0, -156.53125 0 M-156.53125 0 C-156.53125 -13.569463271117288, -156.53125 -27.138926542234575, -156.53125 -42.75 M-156.53125 0 C-156.53125 -11.260320494657117, -156.53125 -22.520640989314234, -156.53125 -42.75" stroke="#9370DB" stroke-width="1.3" fill="none" stroke-dasharray="0 0"/></g><g style="" class="row-rect-even"><path d="M-156.53125 0 L156.53125 0 L156.53125 42.75 L-156.53125 42.75" stroke="none" stroke-width="0" fill="hsl(240, 100%, 97.2745098039%)"/><path d="M-156.53125 0 C-47.535145947867946 0, 61.46095810426411 0, 156.53125 0 M-156.53125 0 C-59.43915524573289 0, 37.65293950853422 0, 156.53125 0 M156.53125 0 C156.53125 12.763175366698414, 156.53125 25.52635073339683, 156.53125 42.75 M156.53125 0 C156.53125 11.100820467879576, 156.53125 22.20164093575915, 156.53125 42.75 M156.53125 42.75 C48.479753317867974 42.75, -59.57174336426405 42.75, -156.53125 42.75 M156.53125 42.75 C53.41269002762763 42.75, -49.705869944744734 42.75, -156.53125 42.75 M-156.53125 42.75 C-156.53125 29.88669008849649, -156.53125 17.02338017699298, -156.53125 0 M-156.53125 42.75 C-156.53125 29.61697063198298, -156.53125 16.483941263965963, -156.53125 0" stroke="#9370DB" stroke-width="1.3" fill="none" stroke-dasharray="0 0"/></g><g style="" class="row-rect-odd"><path d="M-156.53125 42.75 L156.53125 42.75 L156.53125 85.5 L-156.53125 85.5" stroke="none" stroke-width="0" fill="hsl(240, 100%, 100%)"/><path d="M-156.53125 42.75 C-88.30660803892872 42.75, -20.08196607785743 42.75, 156.53125 42.75 M-156.53125 42.75 C-63.8006113596487 42.75, 28.930027280702603 42.75, 156.53125 42.75 M156.53125 42.75 C156.53125 55.816046123152276, 156.53125 68.88209224630455, 156.53125 85.5 M156.53125 42.75 C156.53125 54.69349395302065, 156.53125 66.6369879060413, 156.53125 85.5 M156.53125 85.5 C73.4480427690907 85.5, -9.63516446181859 85.5, -156.53125 85.5 M156.53125 85.5 C50.663130902820555 85.5, -55.20498819435889 85.5, -156.53125 85.5 M-156.53125 85.5 C-156.53125 75.87285948504315, -156.53125 66.2457189700863, -156.53125 42.75 M-156.53125 85.5 C-156.53125 71.85901868971456, -156.53125 58.218037379429106, -156.53125 42.75" stroke="#9370DB" stroke-width="1.3" fill="none" stroke-dasharray="0 0"/></g><g class="label name" transform="translate(-37.1640625, -76.125)" style=""><foreignObject width="74.328125" height="24"><div xmlns="http://www.w3.org/1999/xhtml" style="display: table-cell; white-space: nowrap; line-height: 1.5; max-width: 185px; text-align: start;"><span class="nodeLabel"><p>CATEGORY</p></span></div></foreignObject></g><g class="label attribute-type" transform="translate(-144.03125, -33.375)" style=""><foreignObject width="30.96875" height="24"><div xmlns="http://www.w3.org/1999/xhtml" style="display: table-cell; white-space: nowrap; line-height: 1.5; max-width: 130px; text-align: start;"><span class="nodeLabel"><p>uuid</p></span></div></foreignObject></g><g class="label attribute-name" transform="translate(-65.28125, -33.375)" style=""><foreignObject width="13.484375" height="24"><div xmlns="http://www.w3.org/1999/xhtml" style="display: table-cell; white-space: nowrap; line-height: 1.5; max-width: 113px; text-align: start;"><span class="nodeLabel"><p>id</p></span></div></foreignObject></g><g class="label attribute-keys" transform="translate(28.9375, -33.375)" style=""><foreignObject width="18.140625" height="24"><div xmlns="http://www.w3.org/1999/xhtml" style="display: table-cell; white-space: nowrap; line-height: 1.5; max-width: 122px; text-align: start;"><span class="nodeLabel"><p>PK</p></span></div></foreignObject></g><g class="label attribute-comment" transform="translate(72.078125, -33.375)" style=""><foreignObject width="0" height="0"><div xmlns="http://www.w3.org/1999/xhtml" style="display: table-cell; white-space: nowrap; line-height: 1.5; max-width: 100px; text-align: start;"><span class="nodeLabel"></span></div></foreignObject></g><g class="label attribute-type" transform="translate(-144.03125, 9.375)" style=""><foreignObject width="53.75" height="24"><div xmlns="http://www.w3.org/1999/xhtml" style="display: table-cell; white-space: nowrap; line-height: 1.5; max-width: 150px; text-align: start;"><span class="nodeLabel"><p>varchar</p></span></div></foreignObject></g><g class="label attribute-name" transform="translate(-65.28125, 9.375)" style=""><foreignObject width="39.15625" height="24"><div xmlns="http://www.w3.org/1999/xhtml" style="display: table-cell; white-space: nowrap; line-height: 1.5; max-width: 136px; text-align: start;"><span class="nodeLabel"><p>name</p></span></div></foreignObject></g><g class="label attribute-keys" transform="translate(28.9375, 9.375)" style=""><foreignObject width="0" height="0"><div xmlns="http://www.w3.org/1999/xhtml" style="display: table-cell; white-space: nowrap; line-height: 1.5; max-width: 100px; text-align: start;"><span class="nodeLabel"></span></div></foreignObject></g><g class="label attribute-comment" transform="translate(72.078125, 9.375)" style=""><foreignObject width="71.609375" height="24"><div xmlns="http://www.w3.org/1999/xhtml" style="display: table-cell; white-space: nowrap; line-height: 1.5; max-width: 180px; text-align: start;"><span class="nodeLabel"><p>NOT NULL</p></span></div></foreignObject></g><g class="label attribute-type" transform="translate(-144.03125, 52.125)" style=""><foreignObject width="30.96875" height="24"><div xmlns="http://www.w3.org/1999/xhtml" style="display: table-cell; white-space: nowrap; line-height: 1.5; max-width: 130px; text-align: start;"><span class="nodeLabel"><p>uuid</p></span></div></foreignObject></g><g class="label attribute-name" transform="translate(-65.28125, 52.125)" style=""><foreignObject width="69.21875" height="24"><div xmlns="http://www.w3.org/1999/xhtml" style="display: table-cell; white-space: nowrap; line-height: 1.5; max-width: 162px; text-align: start;"><span class="nodeLabel"><p>parent_id</p></span></div></foreignObject></g><g class="label attribute-keys" transform="translate(28.9375, 52.125)" style=""><foreignObject width="17.609375" height="24"><div xmlns="http://www.w3.org/1999/xhtml" style="display: table-cell; white-space: nowrap; line-height: 1.5; max-width: 122px; text-align: start;"><span class="nodeLabel"><p>FK</p></span></div></foreignObject></g><g class="label attribute-comment" transform="translate(72.078125, 52.125)" style=""><foreignObject width="71.953125" height="24"><div xmlns="http://www.w3.org/1999/xhtml" style="display: table-cell; white-space: nowrap; line-height: 1.5; max-width: 186px; text-align: start;"><span class="nodeLabel"><p>NULLABLE</p></span></div></foreignObject></g><g class="divider"><path d="M-156.53125 -42.75005 L-156.53125 -42.74995 L156.53125 -42.74995 L156.53125 -42.75005" stroke="none" stroke-width="0" fill="#ECECFF" fill-rule="evenodd"/><path d="M-156.53125 -42.75005 C-156.53125 -42.750014949725205, -156.53125 -42.749979899450416, -156.53125 -42.74995 M-156.53125 -42.75005 C-156.53125 -42.750020666246904, -156.53125 -42.749991332493806, -156.53125 -42.74995 M-156.53125 -42.74995 C-79.01633551018097 -42.74995, -1.5014210203619314 -42.74995, 156.53125 -42.74995 M-156.53125 -42.74995 C-43.065201839733575 -42.74995, 70.40084632053285 -42.74995, 156.53125 -42.74995 M156.53125 -42.74995 C156.53125 -42.74997282731641, 156.53125 -42.749995654632826, 156.53125 -42.75005 M156.53125 -42.74995 C156.53125 -42.7499811246847, 156.53125 -42.75001224936941, 156.53125 -42.75005 M156.53125 -42.75005 C57.74279036395586 -42.75005, -41.045669272088276 -42.75005, -156.53125 -42.75005 M156.53125 -42.75005 C86.08342544516374 -42.75005, 15.635600890327481 -42.75005, -156.53125 -42.75005" stroke="#9370DB" stroke-width="1.3" fill="none" stroke-dasharray="0 0"/></g><g class="divider"><path d="M-77.7813 -42.75 L-77.7812 -42.75 L-77.7812 85.5 L-77.7813 85.5" stroke="none" stroke-width="0" fill="#ECECFF" fill-rule="evenodd"/><path d="M-77.7813 -42.75 C-77.78126467129628 -42.75, -77.78122934259257 -42.75, -77.7812 -42.75 M-77.7813 -42.75 C-77.78127202893164 -42.75, -77.78124405786328 -42.75, -77.7812 -42.75 M-77.7812 -42.75 C-77.7812 -2.856556418040391, -77.7812 37.03688716391922, -77.7812 85.5 M-77.7812 -42.75 C-77.7812 3.5453372360815862, -77.7812 49.84067447216317, -77.7812 85.5 M-77.7812 85.5 C-77.78123150231268 85.5, -77.78126300462536 85.5, -77.7813 85.5 M-77.7812 85.5 C-77.78123754091361 85.5, -77.78127508182722 85.5, -77.7813 85.5 M-77.7813 85.5 C-77.7813 56.87557150693674, -77.7813 28.251143013873467, -77.7813 -42.75 M-77.7813 85.5 C-77.7813 57.18147751150909, -77.7813 28.862955023018174, -77.7813 -42.75" stroke="#9370DB" stroke-width="1.3" fill="none" stroke-dasharray="0 0"/></g><g class="divider"><path d="M16.43745 -42.75 L16.43755 -42.75 L16.43755 85.5 L16.43745 85.5" stroke="none" stroke-width="0" fill="#ECECFF" fill-rule="evenodd"/><path d="M16.43745 -42.75 C16.437477593727483 -42.75, 16.437505187454963 -42.75, 16.43755 -42.75 M16.43745 -42.75 C16.437477590030586 -42.75, 16.437505180061173 -42.75, 16.43755 -42.75 M16.43755 -42.75 C16.43755 -5.038144789192259, 16.43755 32.67371042161548, 16.43755 85.5 M16.43755 -42.75 C16.43755 5.12626326545854, 16.43755 53.00252653091708, 16.43755 85.5 M16.43755 85.5 C16.437524208003126 85.5, 16.43749841600625 85.5, 16.43745 85.5 M16.43755 85.5 C16.43752413866939 85.5, 16.437498277338776 85.5, 16.43745 85.5 M16.43745 85.5 C16.43745 45.96115349087534, 16.43745 6.42230698175068, 16.43745 -42.75 M16.43745 85.5 C16.43745 37.87250866516922, 16.43745 -9.754982669661558, 16.43745 -42.75" stroke="#9370DB" stroke-width="1.3" fill="none" stroke-dasharray="0 0"/></g><g class="divider"><path d="M59.578075 -42.75 L59.578175 -42.75 L59.578175 85.5 L59.578075 85.5" stroke="none" stroke-width="0" fill="#ECECFF" fill-rule="evenodd"/><path d="M59.578075 -42.75 C59.578096757664014 -42.75, 59.578118515328036 -42.75, 59.578175 -42.75 M59.578075 -42.75 C59.57811354160233 -42.75, 59.578152083204664 -42.75, 59.578175 -42.75 M59.578175 -42.75 C59.578175 3.0037654529137328, 59.578175 48.757530905827466, 59.578175 85.5 M59.578175 -42.75 C59.578175 1.9079949009297295, 59.578175 46.56598980185946, 59.578175 85.5 M59.578175 85.5 C59.5781424686189 85.5, 59.57810993723779 85.5, 59.578075 85.5 M59.578175 85.5 C59.57815072533814 85.5, 59.57812645067627 85.5, 59.578075 85.5 M59.578075 85.5 C59.578075 50.30875239246538, 59.578075 15.117504784930759, 59.578075 -42.75 M59.578075 85.5 C59.578075 57.95155386304908, 59.578075 30.403107726098156, 59.578075 -42.75" stroke="#9370DB" stroke-width="1.3" fill="none" stroke-dasharray="0 0"/></g><g class="divider"><path d="M-156.53125 -42.75005 L-156.53125 -42.74995 L156.53125 -42.74995 L156.53125 -42.75005" stroke="none" stroke-width="0" fill="#ECECFF" fill-rule="evenodd"/><path d="M-156.53125 -42.75005 C-156.53125 -42.750020597890966, -156.53125 -42.74999119578194, -156.53125 -42.74995 M-156.53125 -42.75005 C-156.53125 -42.7500208359453, -156.53125 -42.749991671890605, -156.53125 -42.74995 M-156.53125 -42.74995 C-79.0838540160262 -42.74995, -1.6364580320523885 -42.74995, 156.53125 -42.74995 M-156.53125 -42.74995 C-79.85368506773357 -42.74995, -3.17612013546713 -42.74995, 156.53125 -42.74995 M156.53125 -42.74995 C156.53125 -42.74997315810959, 156.53125 -42.74999631621919, 156.53125 -42.75005 M156.53125 -42.74995 C156.53125 -42.74997613077766, 156.53125 -42.750002261555316, 156.53125 -42.75005 M156.53125 -42.75005 C55.03400693328692 -42.75005, -46.463236133426165 -42.75005, -156.53125 -42.75005 M156.53125 -42.75005 C33.75983848682097 -42.75005, -89.01157302635806 -42.75005, -156.53125 -42.75005" stroke="#9370DB" stroke-width="1.3" fill="none" stroke-dasharray="0 0"/></g></g><g class="label edgeLabel" id="entity-CATEGORY-0---entity-CATEGORY-0---1" transform="translate(124.50624999962747, 259.05000000074506)"><rect width="0.1" height="0.1"/><g class="label" style="" transform="translate(0, 0)"><rect/><foreignObject width="0" height="0"><div xmlns="http://www.w3.org/1999/xhtml" style="display: table-cell; white-space: nowrap; line-height: 1.5; max-width: 10px; text-align: center;"><span class="nodeLabel"></span></div></foreignObject></g></g><g class="label edgeLabel" id="entity-CATEGORY-0---entity-CATEGORY-0---2" transform="translate(164.53125, 360.1500000022352)"><rect width="0.1" height="0.1"/><g class="label" style="" transform="translate(0, 0)"><rect/><foreignObject width="0" height="0"><div xmlns="http://www.w3.org/1999/xhtml" style="display: table-cell; white-space: nowrap; line-height: 1.5; max-width: 10px; text-align: center;"><span class="nodeLabel"></span></div></foreignObject></g></g></g></g></g><defs><filter id="my-svg-drop-shadow" height="130%" width="130%"><feDropShadow dx="4" dy="4" stdDeviation="0" flood-opacity="0.06" flood-color="#000000"/></filter></defs><defs><filter id="my-svg-drop-shadow-small" height="150%" width="150%"><feDropShadow dx="2" dy="2" stdDeviation="0" flood-opacity="0.06" flood-color="#000000"/></filter></defs></svg>