<svg id="my-svg" width="100%" xmlns="http://www.w3.org/2000/svg" xmlns:xlink="http://www.w3.org/1999/xlink" class="statediagram" style="max-width: 386.984px; background-color: white;" viewBox="0 0 386.984375 414" role="graphics-document document" aria-roledescription="stateDiagram"><style>#my-svg{font-family:"trebuchet ms",verdana,arial,sans-serif;font-size:16px;fill:#333;}@keyframes edge-animation-frame{from{stroke-dashoffset:0;}}@keyframes dash{to{stroke-dashoffset:0;}}#my-svg .edge-animation-slow{stroke-dasharray:9,5!important;stroke-dashoffset:900;animation:dash 50s linear infinite;stroke-linecap:round;}#my-svg .edge-animation-fast{stroke-dasharray:9,5!important;stroke-dashoffset:900;animation:dash 20s linear infinite;stroke-linecap:round;}#my-svg .error-icon{fill:#552222;}#my-svg .error-text{fill:#552222;stroke:#552222;}#my-svg .edge-thickness-normal{stroke-width:1px;}#my-svg .edge-thickness-thick{stroke-width:3.5px;}#my-svg .edge-pattern-solid{stroke-dasharray:0;}#my-svg .edge-thickness-invisible{stroke-width:0;fill:none;}#my-svg .edge-pattern-dashed{stroke-dasharray:3;}#my-svg .edge-pattern-dotted{stroke-dasharray:2;}#my-svg .marker{fill:#333333;stroke:#333333;}#my-svg .marker.cross{stroke:#333333;}#my-svg svg{font-family:"trebuchet ms",verdana,arial,sans-serif;font-size:16px;}#my-svg p{margin:0;}#my-svg defs [id$="-barbEnd"]{fill:#333333;stroke:#333333;}#my-svg g.stateGroup text{fill:#9370DB;stroke:none;font-size:10px;}#my-svg g.stateGroup text{fill:#333;stroke:none;font-size:10px;}#my-svg g.stateGroup .state-title{font-weight:bolder;fill:#131300;}#my-svg g.stateGroup rect{fill:#ECECFF;stroke:#9370DB;}#my-svg g.stateGroup line{stroke:#333333;stroke-width:1;}#my-svg .transition{stroke:#333333;stroke-width:1;fill:none;}#my-svg .stateGroup .composit{fill:white;border-bottom:1px;}#my-svg .stateGroup .alt-composit{fill:#e0e0e0;border-bottom:1px;}#my-svg .state-note{stroke:#aaaa33;fill:#fff5ad;}#my-svg .state-note text{fill:black;stroke:none;font-size:10px;}#my-svg .stateLabel .box{stroke:none;stroke-width:0;fill:#ECECFF;opacity:0.5;}#my-svg .edgeLabel .label rect{fill:#ECECFF;opacity:0.5;}#my-svg .edgeLabel{background-color:rgba(232,232,232, 0.8);text-align:center;}#my-svg .edgeLabel p{background-color:rgba(232,232,232, 0.8);}#my-svg .edgeLabel rect{opacity:0.5;background-color:rgba(232,232,232, 0.8);fill:rgba(232,232,232, 0.8);}#my-svg .edgeLabel .label text{fill:#333;}#my-svg .label div .edgeLabel{color:#333;}#my-svg .stateLabel text{fill:#131300;font-size:10px;font-weight:bold;}#my-svg .node circle.state-start{fill:#333333;stroke:#333333;}#my-svg .node .fork-join{fill:#333333;stroke:#333333;}#my-svg .node circle.state-end{fill:#9370DB;stroke:white;stroke-width:1.5;}#my-svg .end-state-inner{fill:white;stroke-width:1.5;}#my-svg .node rect{fill:#ECECFF;stroke:#9370DB;stroke-width:1px;}#my-svg .node polygon{fill:#ECECFF;stroke:#9370DB;stroke-width:1px;}#my-svg [id$="-barbEnd"]{fill:#333333;}#my-svg .statediagram-cluster rect{fill:#ECECFF;stroke:#9370DB;stroke-width:1px;}#my-svg .cluster-label,#my-svg .nodeLabel{color:#131300;}#my-svg .statediagram-cluster rect.outer{rx:5px;ry:5px;}#my-svg .statediagram-state .divider{stroke:#9370DB;}#my-svg .statediagram-state .title-state{rx:5px;ry:5px;}#my-svg .statediagram-cluster.statediagram-cluster .inner{fill:white;}#my-svg .statediagram-cluster.statediagram-cluster-alt .inner{fill:#f0f0f0;}#my-svg .statediagram-cluster .inner{rx:0;ry:0;}#my-svg .statediagram-state rect.basic{rx:5px;ry:5px;}#my-svg .statediagram-state rect.divider{stroke-dasharray:10,10;fill:#f0f0f0;}#my-svg .note-edge{stroke-dasharray:5;}#my-svg .statediagram-note rect{fill:#fff5ad;stroke:#aaaa33;stroke-width:1px;rx:0;ry:0;}#my-svg .statediagram-note rect{fill:#fff5ad;stroke:#aaaa33;stroke-width:1px;rx:0;ry:0;}#my-svg .statediagram-note text{fill:black;}#my-svg .statediagram-note .nodeLabel{color:black;}#my-svg .statediagram .edgeLabel{color:red;}#my-svg [id$="-dependencyStart"],#my-svg [id$="-dependencyEnd"]{fill:#333333;stroke:#333333;stroke-width:1;}#my-svg .statediagramTitleText{text-anchor:middle;font-size:18px;fill:#333;}#my-svg [data-look="neo"].statediagram-cluster rect{fill:#ECECFF;stroke:#9370DB;stroke-width:1;}#my-svg [data-look="neo"].statediagram-cluster rect.outer{rx:5px;ry:5px;filter:drop-shadow(1px 2px 2px rgba(185, 185, 185, 1));}#my-svg .node .neo-node{stroke:#9370DB;}#my-svg [data-look="neo"].node rect,#my-svg [data-look="neo"].cluster rect,#my-svg [data-look="neo"].node polygon{stroke:#9370DB;filter:drop-shadow(1px 2px 2px rgba(185, 185, 185, 1));}#my-svg [data-look="neo"].swimlane.cluster rect{filter:none;}#my-svg [data-look="neo"].node path{stroke:#9370DB;stroke-width:1px;}#my-svg [data-look="neo"].node .outer-path{filter:drop-shadow(1px 2px 2px rgba(185, 185, 185, 1));}#my-svg [data-look="neo"].node .neo-line path{stroke:#9370DB;filter:none;}#my-svg [data-look="neo"].node circle{stroke:#9370DB;filter:drop-shadow(1px 2px 2px rgba(185, 185, 185, 1));}#my-svg [data-look="neo"].node circle .state-start{fill:#000000;}#my-svg [data-look="neo"].icon-shape .icon{fill:#9370DB;filter:drop-shadow(1px 2px 2px rgba(185, 185, 185, 1));}#my-svg [data-look="neo"].icon-shape .icon-neo path{stroke:#9370DB;filter:drop-shadow(1px 2px 2px rgba(185, 185, 185, 1));}#my-svg :root{--mermaid-font-family:"trebuchet ms",verdana,arial,sans-serif;}</style><g><defs><marker id="my-svg_stateDiagram-barbEnd" refX="19" refY="7" markerWidth="20" markerHeight="14" markerUnits="userSpaceOnUse" orient="auto"><path d="M 19,7 L9,13 L14,7 L9,1 Z"/></marker></defs><g class="root"><g class="clusters"/><g class="edgePaths"><path d="M181.098,17.069L164.974,22.057C148.85,27.046,116.603,37.023,100.479,46.178C84.355,55.333,84.355,63.667,84.355,67.833L84.355,72" id="my-svg-edge0" class="edge-thickness-normal edge-pattern-solid transition" style="fill:none;;;fill:none" data-edge="true" data-et="edge" data-id="edge0" data-points="W3sieCI6MTgxLjA5NzkwMDI4NTcwOTI3LCJ5IjoxNy4wNjg5NjI5NDUwNjY0NTZ9LHsieCI6ODQuMzU1NDY4NzUsInkiOjQ3fSx7IngiOjg0LjM1NTQ2ODc1LCJ5Ijo3Mn1d" data-look="classic" marker-end="url(#my-svg_stateDiagram-barbEnd)"/><path d="M84.355,112L84.355,116.167C84.355,120.333,84.355,128.667,84.439,138.083C84.522,147.5,84.689,158,84.772,163.25L84.855,168.5" id="my-svg-edge1" class="edge-thickness-normal edge-pattern-solid transition" style="fill:none;;;fill:none" data-edge="true" data-et="edge" data-id="edge1" data-points="W3sieCI6ODQuMzU1NDY4NzUsInkiOjExMn0seyJ4Ijo4NC4zNTU0Njg3NSwieSI6MTM3fSx7IngiOjg0Ljg1NTQ2ODc1LCJ5IjoxNjguNX1d" data-look="classic" marker-end="url(#my-svg_stateDiagram-barbEnd)"/><path d="M78.314,189.959L70.99,198.132C63.665,206.306,49.016,222.653,41.692,236.993C34.367,251.333,34.367,263.667,34.367,269.833L34.367,276" id="my-svg-edge2" class="edge-thickness-normal edge-pattern-solid transition" style="fill:none;;;fill:none" data-edge="true" data-et="edge" data-id="edge2" data-points="W3sieCI6NzguMzE0MjI5NTY2Mzg2MTUsInkiOjE4OS45NTg3NjA4MTYzODYxM30seyJ4IjozNC4zNjcxODc1LCJ5IjoyMzl9LHsieCI6MzQuMzY3MTg3NSwieSI6Mjc2fV0=" data-look="classic" marker-end="url(#my-svg_stateDiagram-barbEnd)"/><path d="M91.397,189.959L98.555,198.132C105.712,206.306,120.028,222.653,127.186,236.993C134.344,251.333,134.344,263.667,134.344,269.833L134.344,276" id="my-svg-edge3" class="edge-thickness-normal edge-pattern-solid transition" style="fill:none;;;fill:none" data-edge="true" data-et="edge" data-id="edge3" data-points="W3sieCI6OTEuMzk2NzA3OTMzNjEzODUsInkiOjE4OS45NTg3NjA4MTYzODYxM30seyJ4IjoxMzQuMzQzNzUsInkiOjIzOX0seyJ4IjoxMzQuMzQzNzUsInkiOjI3Nn1d" data-look="classic" marker-end="url(#my-svg_stateDiagram-barbEnd)"/><path d="M194.477,17.053L210.744,22.044C227.011,27.036,259.544,37.018,275.811,48.676C292.078,60.333,292.078,73.667,292.078,80.333L292.078,87" id="my-svg-edge4" class="edge-thickness-normal edge-pattern-solid transition" style="fill:none;;;fill:none" data-edge="true" data-et="edge" data-id="edge4" data-points="W3sieCI6MTk0LjQ3NzIzMzA1NTYzMzU1LCJ5IjoxNy4wNTMzMTYzNDg2MTc5MjN9LHsieCI6MjkyLjA3ODEyNSwieSI6NDd9LHsieCI6MjkyLjA3ODEyNSwieSI6ODd9XQ==" data-look="classic" marker-end="url(#my-svg_stateDiagram-barbEnd)"/><path d="M285.861,97L277.572,103.667C269.282,110.333,252.704,123.667,244.414,134.5C236.125,145.333,236.125,153.667,236.125,157.833L236.125,162" id="my-svg-edge5" class="edge-thickness-normal edge-pattern-solid transition" style="fill:none;;;fill:none" data-edge="true" data-et="edge" data-id="edge5" data-points="W3sieCI6Mjg1Ljg2MTExMTExMTExMTEsInkiOjk3fSx7IngiOjIzNi4xMjUsInkiOjEzN30seyJ4IjoyMzYuMTI1LCJ5IjoxNjJ9XQ==" data-look="classic" marker-end="url(#my-svg_stateDiagram-barbEnd)"/><path d="M298.295,97L306.584,103.667C314.874,110.333,331.453,123.667,339.742,134.5C348.031,145.333,348.031,153.667,348.031,157.833L348.031,162" id="my-svg-edge6" class="edge-thickness-normal edge-pattern-solid transition" style="fill:none;;;fill:none" data-edge="true" data-et="edge" data-id="edge6" data-points="W3sieCI6Mjk4LjI5NTEzODg4ODg4ODksInkiOjk3fSx7IngiOjM0OC4wMzEyNSwieSI6MTM3fSx7IngiOjM0OC4wMzEyNSwieSI6MTYyfV0=" data-look="classic" marker-end="url(#my-svg_stateDiagram-barbEnd)"/><path d="M236.125,202L236.125,208.167C236.125,214.333,236.125,226.667,244.632,241.5C253.14,256.333,270.155,273.667,278.662,282.333L287.17,291" id="my-svg-edge7" class="edge-thickness-normal edge-pattern-solid transition" style="fill:none;;;fill:none" data-edge="true" data-et="edge" data-id="edge7" data-points="W3sieCI6MjM2LjEyNSwieSI6MjAyfSx7IngiOjIzNi4xMjUsInkiOjIzOX0seyJ4IjoyODcuMTY5OTU2MTQwMzUwOSwieSI6MjkxfV0=" data-look="classic" marker-end="url(#my-svg_stateDiagram-barbEnd)"/><path d="M348.031,202L348.031,208.167C348.031,214.333,348.031,226.667,339.524,241.5C331.016,256.333,314.001,273.667,305.494,282.333L296.986,291" id="my-svg-edge8" class="edge-thickness-normal edge-pattern-solid transition" style="fill:none;;;fill:none" data-edge="true" data-et="edge" data-id="edge8" data-points="W3sieCI6MzQ4LjAzMTI1LCJ5IjoyMDJ9LHsieCI6MzQ4LjAzMTI1LCJ5IjoyMzl9LHsieCI6Mjk2Ljk4NjI5Mzg1OTY0OTEsInkiOjI5MX1d" data-look="classic" marker-end="url(#my-svg_stateDiagram-barbEnd)"/><path d="M292.078,301L292.078,307.667C292.078,314.333,292.078,327.667,292.078,338.5C292.078,349.333,292.078,357.667,292.078,361.833L292.078,366" id="my-svg-edge9" class="edge-thickness-normal edge-pattern-solid transition" style="fill:none;;;fill:none" data-edge="true" data-et="edge" data-id="edge9" data-points="W3sieCI6MjkyLjA3ODEyNSwieSI6MzAxfSx7IngiOjI5Mi4wNzgxMjUsInkiOjM0MX0seyJ4IjoyOTIuMDc4MTI1LCJ5IjozNjZ9XQ==" data-look="classic" marker-end="url(#my-svg_stateDiagram-barbEnd)"/></g><g class="edgeLabels"><g class="edgeLabel"><g class="label" data-id="edge0" transform="translate(0, 0)"><foreignObject width="0" height="0"><div xmlns="http://www.w3.org/1999/xhtml" class="labelBkg" style="display: table-cell; white-space: nowrap; line-height: 1.5; max-width: 200px; text-align: center;"><span class="edgeLabel"></span></div></foreignObject></g></g><g class="edgeLabel"><g class="label" data-id="edge1" transform="translate(0, 0)"><foreignObject width="0" height="0"><div xmlns="http://www.w3.org/1999/xhtml" class="labelBkg" style="display: table-cell; white-space: nowrap; line-height: 1.5; max-width: 200px; text-align: center;"><span class="edgeLabel"></span></div></foreignObject></g></g><g class="edgeLabel" transform="translate(34.3671875, 239)"><g class="label" data-id="edge2" transform="translate(-25.234375, -12)"><foreignObject width="50.46875" height="24"><div xmlns="http://www.w3.org/1999/xhtml" class="labelBkg" style="display: table-cell; white-space: nowrap; line-height: 1.5; max-width: 200px; text-align: center;"><span class="edgeLabel"><p>if n &lt; 0</p></span></div></foreignObject></g></g><g class="edgeLabel" transform="translate(134.34375, 239)"><g class="label" data-id="edge3" transform="translate(-29.4296875, -12)"><foreignObject width="58.859375" height="24"><div xmlns="http://www.w3.org/1999/xhtml" class="labelBkg" style="display: table-cell; white-space: nowrap; line-height: 1.5; max-width: 200px; text-align: center;"><span class="edgeLabel"><p>if n &gt;= 0</p></span></div></foreignObject></g></g><g class="edgeLabel"><g class="label" data-id="edge4" transform="translate(0, 0)"><foreignObject width="0" height="0"><div xmlns="http://www.w3.org/1999/xhtml" class="labelBkg" style="display: table-cell; white-space: nowrap; line-height: 1.5; max-width: 200px; text-align: center;"><span class="edgeLabel"></span></div></foreignObject></g></g><g class="edgeLabel"><g class="label" data-id="edge5" transform="translate(0, 0)"><foreignObject width="0" height="0"><div xmlns="http://www.w3.org/1999/xhtml" class="labelBkg" style="display: table-cell; white-space: nowrap; line-height: 1.5; max-width: 200px; text-align: center;"><span class="edgeLabel"></span></div></foreignObject></g></g><g class="edgeLabel"><g class="label" data-id="edge6" transform="translate(0, 0)"><foreignObject width="0" height="0"><div xmlns="http://www.w3.org/1999/xhtml" class="labelBkg" style="display: table-cell; white-space: nowrap; line-height: 1.5; max-width: 200px; text-align: center;"><span class="edgeLabel"></span></div></foreignObject></g></g><g class="edgeLabel"><g class="label" data-id="edge7" transform="translate(0, 0)"><foreignObject width="0" height="0"><div xmlns="http://www.w3.org/1999/xhtml" class="labelBkg" style="display: table-cell; white-space: nowrap; line-height: 1.5; max-width: 200px; text-align: center;"><span class="edgeLabel"></span></div></foreignObject></g></g><g class="edgeLabel"><g class="label" data-id="edge8" transform="translate(0, 0)"><foreignObject width="0" height="0"><div xmlns="http://www.w3.org/1999/xhtml" class="labelBkg" style="display: table-cell; white-space: nowrap; line-height: 1.5; max-width: 200px; text-align: center;"><span class="edgeLabel"></span></div></foreignObject></g></g><g class="edgeLabel"><g class="label" data-id="edge9" transform="translate(0, 0)"><foreignObject width="0" height="0"><div xmlns="http://www.w3.org/1999/xhtml" class="labelBkg" style="display: table-cell; white-space: nowrap; line-height: 1.5; max-width: 200px; text-align: center;"><span class="edgeLabel"></span></div></foreignObject></g></g></g><g class="nodes"><g class="node  statediagram-state" id="my-svg-state-if_state-3" data-look="classic" transform="translate(84.35546875, 182)"><g><path d="M0 14 C4.863132084235558 9.13686791576444, 9.726264168471117 4.273735831528883, 14 0 C10.597502272855333 -3.4024977271446675, 7.195004545710665 -6.804995454289335, 0 -14 C-2.995048500649206 -11.004951499350794, -5.990097001298412 -8.009902998701588, -14 0 C-9.085401548029225 4.914598451970775, -4.1708030960584495 9.82919690394155, 0 14" stroke="none" stroke-width="0" fill="#ECECFF" style=""/><path d="M0 14 C5.243123703192779 8.75687629680722, 10.486247406385559 3.5137525936144414, 14 0 M0 14 C5.231210801341893 8.768789198658107, 10.462421602683786 3.5375783973162136, 14 0 M14 0 C10.244446674365735 -3.7555533256342652, 6.4888933487314695 -7.5111066512685305, 0 -14 M14 0 C10.62761592662448 -3.3723840733755197, 7.255231853248961 -6.744768146751039, 0 -14 M0 -14 C-3.0016415004465475 -10.998358499553452, -6.003283000893095 -7.996716999106905, -14 0 M0 -14 C-4.705181005284167 -9.294818994715833, -9.410362010568335 -4.589637989431665, -14 0 M-14 0 C-9.0992982472415 4.9007017527585015, -4.198596494482997 9.801403505517003, 0 14 M-14 0 C-10.153552244886729 3.8464477551132705, -6.307104489773459 7.692895510226541, 0 14" stroke="#9370DB" stroke-width="1.3" fill="none" stroke-dasharray="0 0" style=""/></g></g><g class="node default" id="my-svg-state-root_start-4" data-look="classic" transform="translate(187.78515625, 15)"><circle class="state-start" r="7" width="14" height="14"/></g><g class="node  statediagram-state" id="my-svg-state-IsPositive-1" data-look="classic" transform="translate(84.35546875, 92)"><rect class="basic label-container" style="" rx="5" ry="5" x="-41.1015625" y="-20" width="82.203125" height="40"/><g class="label" style="" transform="translate(-33.1015625, -12)"><rect/><foreignObject width="66.203125" height="24"><div xmlns="http://www.w3.org/1999/xhtml" style="display: table-cell; white-space: nowrap; line-height: 1.5; max-width: 200px; text-align: center;"><span class="nodeLabel markdown-node-label"><p>IsPositive</p></span></div></foreignObject></g></g><g class="node  statediagram-state" id="my-svg-state-False-2" data-look="classic" transform="translate(34.3671875, 296)"><rect class="basic label-container" style="" rx="5" ry="5" x="-26.3671875" y="-20" width="52.734375" height="40"/><g class="label" style="" transform="translate(-18.3671875, -12)"><rect/><foreignObject width="36.734375" height="24"><div xmlns="http://www.w3.org/1999/xhtml" style="display: table-cell; white-space: nowrap; line-height: 1.5; max-width: 200px; text-align: center;"><span class="nodeLabel markdown-node-label"><p>False</p></span></div></foreignObject></g></g><g class="node  statediagram-state" id="my-svg-state-True-3" data-look="classic" transform="translate(134.34375, 296)"><rect class="basic label-container" style="" rx="5" ry="5" x="-23.609375" y="-20" width="47.21875" height="40"/><g class="label" style="" transform="translate(-15.609375, -12)"><rect/><foreignObject width="31.21875" height="24"><div xmlns="http://www.w3.org/1999/xhtml" style="display: table-cell; white-space: nowrap; line-height: 1.5; max-width: 200px; text-align: center;"><span class="nodeLabel markdown-node-label"><p>True</p></span></div></foreignObject></g></g><g class="node  statediagram-state" id="my-svg-state-fork_state-6" data-look="classic" transform="translate(292.078125, 92)"><g><path d="M-35 -5 L35 -5 L35 5 L-35 5" stroke="none" stroke-width="0" fill="#333333" style=""/><path d="M-35 -5 C-12.950277285973037 -5, 9.099445428053926 -5, 35 -5 M-35 -5 C-14.16567259177511 -5, 6.668654816449781 -5, 35 -5 M35 -5 C35 -2.2671564086486535, 35 0.46568718270269294, 35 5 M35 -5 C35 -2.784823981823764, 35 -0.5696479636475278, 35 5 M35 5 C9.384893744362618 5, -16.230212511274765 5, -35 5 M35 5 C10.997626283622083 5, -13.004747432755835 5, -35 5 M-35 5 C-35 2.279980313071699, -35 -0.4400393738566022, -35 -5 M-35 5 C-35 2.046166157074177, -35 -0.9076676858516457, -35 -5" stroke="#333333" stroke-width="1.3" fill="none" stroke-dasharray="0 0" style=""/></g></g><g class="node  statediagram-state" id="my-svg-state-State2-7" data-look="classic" transform="translate(236.125, 182)"><rect class="basic label-container" style="" rx="5" ry="5" x="-30.953125" y="-20" width="61.90625" height="40"/><g class="label" style="" transform="translate(-22.953125, -12)"><rect/><foreignObject width="45.90625" height="24"><div xmlns="http://www.w3.org/1999/xhtml" style="display: table-cell; white-space: nowrap; line-height: 1.5; max-width: 200px; text-align: center;"><span class="nodeLabel markdown-node-label"><p>State2</p></span></div></foreignObject></g></g><g class="node  statediagram-state" id="my-svg-state-State3-8" data-look="classic" transform="translate(348.03125, 182)"><rect class="basic label-container" style="" rx="5" ry="5" x="-30.953125" y="-20" width="61.90625" height="40"/><g class="label" style="" transform="translate(-22.953125, -12)"><rect/><foreignObject width="45.90625" height="24"><div xmlns="http://www.w3.org/1999/xhtml" style="display: table-cell; white-space: nowrap; line-height: 1.5; max-width: 200px; text-align: center;"><span class="nodeLabel markdown-node-label"><p>State3</p></span></div></foreignObject></g></g><g class="node  statediagram-state" id="my-svg-state-join_state-9" data-look="classic" transform="translate(292.078125, 296)"><g><path d="M-35 -5 L35 -5 L35 5 L-35 5" stroke="none" stroke-width="0" fill="#333333" style=""/><path d="M-35 -5 C-9.980049572425564 -5, 15.039900855148872 -5, 35 -5 M-35 -5 C-17.9532974220746 -5, -0.9065948441491969 -5, 35 -5 M35 -5 C35 -2.4043052563868694, 35 0.19138948722626115, 35 5 M35 -5 C35 -2.2523647176471466, 35 0.49527056470570674, 35 5 M35 5 C8.400411372950625 5, -18.19917725409875 5, -35 5 M35 5 C15.108737100542402 5, -4.782525798915195 5, -35 5 M-35 5 C-35 2.359564404576466, -35 -0.28087119084706824, -35 -5 M-35 5 C-35 2.8729244157402665, -35 0.7458488314805329, -35 -5" stroke="#333333" stroke-width="1.3" fill="none" stroke-dasharray="0 0" style=""/></g></g><g class="node  statediagram-state" id="my-svg-state-State4-9" data-look="classic" transform="translate(292.078125, 386)"><rect class="basic label-container" style="" rx="5" ry="5" x="-30.953125" y="-20" width="61.90625" height="40"/><g class="label" style="" transform="translate(-22.953125, -12)"><rect/><foreignObject width="45.90625" height="24"><div xmlns="http://www.w3.org/1999/xhtml" style="display: table-cell; white-space: nowrap; line-height: 1.5; max-width: 200px; text-align: center;"><span class="nodeLabel markdown-node-label"><p>State4</p></span></div></foreignObject></g></g></g></g></g><defs><filter id="my-svg-drop-shadow" height="130%" width="130%"><feDropShadow dx="4" dy="4" stdDeviation="0" flood-opacity="0.06" flood-color="#000000"/></filter></defs><defs><filter id="my-svg-drop-shadow-small" height="150%" width="150%"><feDropShadow dx="2" dy="2" stdDeviation="0" flood-opacity="0.06" flood-color="#000000"/></filter></defs></svg>